<svg width="30" height="30" viewBox="0 0 30 30" fill="none" xmlns="http://www.w3.org/2000/svg">
<g clip-path="url(#clip0_407_240)">
<path d="M8.28511 29.8652C6.03511 30.4688 3.72066 29.1328 3.123 26.8828L0.146438 15.7793C-0.457078 13.5293 0.87886 11.2148 3.12886 10.6113L14.2324 7.63477C16.4824 7.03125 18.7968 8.36719 19.4003 10.6172L22.3769 21.7207C22.9804 23.9707 21.6445 26.2852 19.3945 26.8887L8.28511 29.8652ZM9.63277 17.8125C9.50186 18.0259 9.41504 18.2634 9.37741 18.511C9.33978 18.7585 9.35212 19.0111 9.41368 19.2538C9.47525 19.4965 9.5848 19.7244 9.73587 19.9241C9.88694 20.1237 10.0765 20.2911 10.2933 20.4164C10.5101 20.5416 10.7498 20.6221 10.9983 20.6532C11.2467 20.6843 11.4989 20.6654 11.7398 20.5974C11.9808 20.5295 12.2058 20.414 12.4014 20.2577C12.597 20.1014 12.7594 19.9075 12.8789 19.6875C13.0098 19.4741 13.0966 19.2366 13.1342 18.989C13.1718 18.7415 13.1595 18.4889 13.0979 18.2462C13.0364 18.0035 12.9268 17.7756 12.7758 17.5759C12.6247 17.3763 12.4351 17.2089 12.2183 17.0836C12.0015 16.9584 11.7618 16.8779 11.5134 16.8468C11.2649 16.8157 11.0128 16.8346 10.7718 16.9026C10.5308 16.9705 10.3058 17.086 10.1102 17.2423C9.91459 17.3986 9.75225 17.5925 9.63277 17.8125ZM4.64058 17.0918C4.85402 17.2227 5.09152 17.3095 5.33906 17.3472C5.5866 17.3848 5.83917 17.3724 6.08186 17.3109C6.32456 17.2493 6.55247 17.1398 6.75214 16.9887C6.95181 16.8376 7.11921 16.6481 7.24444 16.4313C7.36968 16.2145 7.45022 15.9748 7.48131 15.7263C7.51241 15.4779 7.49343 15.2257 7.4255 14.9847C7.35756 14.7437 7.24205 14.5188 7.08577 14.3232C6.92949 14.1275 6.73561 13.9652 6.51558 13.8457C6.30214 13.7148 6.06464 13.628 5.8171 13.5904C5.56956 13.5527 5.31699 13.5651 5.07429 13.6266C4.8316 13.6882 4.60369 13.7977 4.40402 13.9488C4.20434 14.0999 4.03695 14.2894 3.91172 14.5062C3.78648 14.723 3.70594 14.9627 3.67484 15.2112C3.64375 15.4596 3.66273 15.7118 3.73066 15.9528C3.79859 16.1938 3.91411 16.4187 4.07039 16.6143C4.22667 16.81 4.42054 16.9723 4.64058 17.0918ZM15.4804 11.4434C15.267 11.3125 15.0295 11.2256 14.7819 11.188C14.5344 11.1504 14.2818 11.1627 14.0391 11.2243C13.7964 11.2858 13.5685 11.3954 13.3689 11.5465C13.1692 11.6975 13.0018 11.8871 12.8766 12.1039C12.7513 12.3207 12.6708 12.5604 12.6397 12.8088C12.6086 13.0573 12.6276 13.3095 12.6955 13.5504C12.7634 13.7914 12.879 14.0164 13.0352 14.212C13.1915 14.4076 13.3854 14.57 13.6054 14.6895C13.8189 14.8204 14.0564 14.9072 14.3039 14.9448C14.5514 14.9824 14.804 14.9701 15.0467 14.9085C15.2894 14.847 15.5173 14.7374 15.717 14.5863C15.9167 14.4353 16.0841 14.2457 16.2093 14.0289C16.3345 13.8121 16.4151 13.5724 16.4462 13.324C16.4773 13.0755 16.4583 12.8234 16.3903 12.5824C16.3224 12.3414 16.2069 12.1164 16.0506 11.9208C15.8943 11.7252 15.7005 11.5628 15.4804 11.4434ZM16.0078 23.6543C16.2212 23.7852 16.4587 23.872 16.7062 23.9097C16.9538 23.9473 17.2064 23.9349 17.4491 23.8734C17.6918 23.8118 17.9197 23.7023 18.1193 23.5512C18.319 23.4001 18.4864 23.2106 18.6116 22.9938C18.7369 22.777 18.8174 22.5373 18.8485 22.2888C18.8796 22.0404 18.8606 21.7882 18.7927 21.5472C18.7248 21.3062 18.6092 21.0813 18.453 20.8857C18.2967 20.69 18.1028 20.5277 17.8828 20.4082C17.6693 20.2773 17.4318 20.1905 17.1843 20.1528C16.9367 20.1152 16.6842 20.1276 16.4415 20.1891C16.1988 20.2507 15.9709 20.3602 15.7712 20.5113C15.5715 20.6624 15.4041 20.8519 15.2789 21.0687C15.1537 21.2855 15.0731 21.5252 15.042 21.7737C15.0109 22.0221 15.0299 22.2743 15.0978 22.5153C15.1658 22.7563 15.2813 22.9812 15.4376 23.1768C15.5939 23.3725 15.7877 23.5348 16.0078 23.6543ZM8.91792 22.8105C8.70448 22.6796 8.46698 22.5928 8.21944 22.5552C7.9719 22.5176 7.71933 22.5299 7.47664 22.5915C7.23394 22.653 7.00603 22.7626 6.80636 22.9137C6.60669 23.0647 6.4393 23.2543 6.31406 23.4711C6.18882 23.6879 6.10828 23.9276 6.07719 24.176C6.04609 24.4245 6.06507 24.6766 6.133 24.9176C6.20094 25.1586 6.31645 25.3836 6.47273 25.5792C6.62901 25.7748 6.82289 25.9372 7.04292 26.0566C7.25636 26.1875 7.49386 26.2744 7.7414 26.312C7.98894 26.3496 8.24151 26.3373 8.48421 26.2757C8.7269 26.2142 8.95481 26.1046 9.15448 25.9535C9.35416 25.8025 9.52155 25.6129 9.64678 25.3961C9.77202 25.1793 9.85256 24.9396 9.88366 24.6912C9.91476 24.4427 9.89578 24.1906 9.82784 23.9496C9.75991 23.7086 9.64439 23.4836 9.48811 23.288C9.33183 23.0924 9.13796 22.93 8.91792 22.8105ZM24.4921 18.75L22.1132 9.89063C21.1054 6.14063 17.25 3.91406 13.5 4.91602L11.2558 5.51953V3.75C11.2558 1.68164 12.9375 1.43051e-06 15.0058 1.43051e-06H26.2558C28.3242 1.43051e-06 30.0058 1.68164 30.0058 3.75V15C30.0058 17.0684 28.3242 18.75 26.2558 18.75H24.4921Z" fill="white"/>
</g>
<defs>
<clipPath id="clip0_407_240">
<rect width="30" height="30" fill="white" transform="matrix(1 0 0 -1 0 30)"/>
</clipPath>
</defs>
</svg>
