<svg width="21" height="21" viewBox="0 0 21 21" fill="none" xmlns="http://www.w3.org/2000/svg">
<path fill-rule="evenodd" clip-rule="evenodd" d="M13.1276 3.5C13.7786 3.5 14.4664 3.7275 15.0964 3.97862L15.5575 4.16763C16.66 4.62962 17.2795 5.59913 17.7599 6.664C18.5395 8.39213 19.0811 10.696 19.2684 12.4478C19.3576 13.279 19.3795 14.1155 19.2194 14.6781C19.047 15.2792 18.4608 15.7045 17.8911 16.0387L17.6094 16.1989L17.3171 16.3616C17.1655 16.4456 17.0123 16.5285 16.8578 16.6101L16.401 16.8464L15.7736 17.1588L15.2688 17.4072C15.1656 17.4629 15.0524 17.4972 14.9357 17.5082C14.819 17.5192 14.7013 17.5067 14.5896 17.4714C14.4779 17.436 14.3744 17.3786 14.2853 17.3025C14.1962 17.2264 14.1232 17.1332 14.0708 17.0284C14.0184 16.9236 13.9876 16.8093 13.9802 16.6924C13.9728 16.5754 13.989 16.4582 14.0277 16.3476C14.0665 16.237 14.1271 16.1353 14.2059 16.0486C14.2847 15.9619 14.3801 15.8919 14.4865 15.8428L15.1778 15.5015L14.6703 14.9686C13.454 15.4674 12.0216 15.75 10.5 15.75C8.97839 15.75 7.54601 15.4683 6.32976 14.9686L5.82226 15.5006L6.51614 15.8419C6.61898 15.8932 6.7107 15.9644 6.78605 16.0512C6.86141 16.138 6.91893 16.2388 6.95533 16.3478C6.99173 16.4569 7.0063 16.572 6.9982 16.6867C6.9901 16.8013 6.9595 16.9133 6.90814 17.0161C6.85677 17.119 6.78566 17.2107 6.69885 17.286C6.61204 17.3614 6.51124 17.4189 6.4022 17.4553C6.18198 17.5288 5.94159 17.5119 5.73389 17.4081L5.25789 17.1719C4.90614 16.9969 4.55351 16.8236 4.20526 16.6407L3.39326 16.1989L3.11239 16.0387C2.54276 15.7045 1.95564 15.2792 1.78414 14.6781C1.62314 14.1155 1.64589 13.2799 1.73426 12.4469C1.92151 10.696 2.46314 8.39213 3.24276 6.664C3.72314 5.59913 4.34264 4.62962 5.44514 4.16763C6.17664 3.86138 7.06301 3.5 7.87501 3.5C8.40264 3.5 8.81739 3.98562 8.74126 4.50362C9.32366 4.41855 9.91143 4.37557 10.5 4.375C11.1046 4.375 11.6953 4.41875 12.2623 4.5045C12.2454 4.38024 12.2551 4.25382 12.2908 4.1336C12.3264 4.01337 12.3872 3.9021 12.4691 3.80714C12.551 3.71217 12.6522 3.63568 12.7658 3.58274C12.8795 3.52979 13.0022 3.50159 13.1276 3.5ZM7.65626 9.1875C7.25015 9.1875 6.86067 9.34883 6.57351 9.63599C6.28634 9.92316 6.12501 10.3126 6.12501 10.7188C6.12501 11.1249 6.28634 11.5143 6.57351 11.8015C6.86067 12.0887 7.25015 12.25 7.65626 12.25C8.06238 12.25 8.45186 12.0887 8.73902 11.8015C9.02619 11.5143 9.18751 11.1249 9.18751 10.7188C9.18751 10.3126 9.02619 9.92316 8.73902 9.63599C8.45186 9.34883 8.06238 9.1875 7.65626 9.1875ZM13.3438 9.1875C12.9376 9.1875 12.5482 9.34883 12.261 9.63599C11.9738 9.92316 11.8125 10.3126 11.8125 10.7188C11.8125 11.1249 11.9738 11.5143 12.261 11.8015C12.5482 12.0887 12.9376 12.25 13.3438 12.25C13.7499 12.25 14.1394 12.0887 14.4265 11.8015C14.7137 11.5143 14.875 11.1249 14.875 10.7188C14.875 10.3126 14.7137 9.92316 14.4265 9.63599C14.1394 9.34883 13.7499 9.1875 13.3438 9.1875Z" fill="#00BBA3"/>
</svg>
