<svg width="30" height="30" viewBox="0 0 30 30" fill="none" xmlns="http://www.w3.org/2000/svg">
<path fill-rule="evenodd" clip-rule="evenodd" d="M20.8375 16.4125C22.55 17.575 23.75 19.15 23.75 21.25V25H27.5C28.1875 25 28.75 24.4375 28.75 23.75V21.25C28.75 18.525 24.2875 16.9125 20.8375 16.4125Z" fill="text-*"/>
<path d="M11.25 15C14.0114 15 16.25 12.7614 16.25 10C16.25 7.23858 14.0114 5 11.25 5C8.48858 5 6.25 7.23858 6.25 10C6.25 12.7614 8.48858 15 11.25 15Z" fill="text-*"/>
<path fill-rule="evenodd" clip-rule="evenodd" d="M18.75 15C21.5125 15 23.75 12.7625 23.75 10C23.75 7.2375 21.5125 5 18.75 5C18.1625 5 17.6125 5.125 17.0875 5.3C18.1632 6.63027 18.75 8.28925 18.75 10C18.75 11.7107 18.1632 13.3697 17.0875 14.7C17.6125 14.875 18.1625 15 18.75 15ZM11.25 16.25C7.9125 16.25 1.25 17.925 1.25 21.25V23.75C1.25 24.4375 1.8125 25 2.5 25H20C20.6875 25 21.25 24.4375 21.25 23.75V21.25C21.25 17.925 14.5875 16.25 11.25 16.25Z" fill="text-*"/>
</svg>
