<svg width="30" height="30" viewBox="0 0 30 30" fill="none" xmlns="http://www.w3.org/2000/svg">
<path d="M18.4425 12.5C19.65 12.5 20.63 13.48 20.63 14.6875V20.6238C20.63 22.1159 20.0372 23.547 18.9821 24.6021C17.927 25.6572 16.4959 26.25 15.0038 26.25C13.5116 26.25 12.0805 25.6572 11.0254 24.6021C9.97026 23.547 9.3775 22.1159 9.3775 20.6238V14.6875C9.3775 13.48 10.3562 12.5 11.565 12.5H18.4425ZM8.91375 12.5C8.46208 13.041 8.19108 13.7097 8.13875 14.4125L8.12625 14.6875V20.6238C8.12625 21.6825 8.36625 22.685 8.79375 23.58C8.38042 23.6925 7.94917 23.7492 7.5 23.75C6.84329 23.75 6.193 23.6206 5.58629 23.3693C4.97958 23.1179 4.42833 22.7495 3.96402 22.2851C3.49972 21.8207 3.13144 21.2693 2.88024 20.6626C2.62904 20.0558 2.49984 19.4055 2.5 18.7487V14.6875C2.50002 14.1385 2.70646 13.6096 3.07835 13.2058C3.45024 12.8019 3.96037 12.5527 4.5075 12.5075L4.6875 12.5H8.91375ZM21.0938 12.5H25.3125C26.52 12.5 27.5 13.48 27.5 14.6875V18.75C27.5002 19.5165 27.3241 20.2727 26.9855 20.9603C26.6468 21.6479 26.1547 22.2484 25.547 22.7155C24.9393 23.1825 24.2323 23.5036 23.4807 23.654C22.7292 23.8043 21.9531 23.7799 21.2125 23.5825C21.5875 22.7975 21.8175 21.9325 21.8688 21.0175L21.88 20.6238V14.6875C21.88 13.8562 21.5862 13.0937 21.0938 12.5ZM15 3.75C15.9946 3.75 16.9484 4.14509 17.6517 4.84835C18.3549 5.55161 18.75 6.50544 18.75 7.5C18.75 8.49456 18.3549 9.44839 17.6517 10.1517C16.9484 10.8549 15.9946 11.25 15 11.25C14.0054 11.25 13.0516 10.8549 12.3483 10.1517C11.6451 9.44839 11.25 8.49456 11.25 7.5C11.25 6.50544 11.6451 5.55161 12.3483 4.84835C13.0516 4.14509 14.0054 3.75 15 3.75ZM23.125 5C23.9538 5 24.7487 5.32924 25.3347 5.91529C25.9208 6.50134 26.25 7.2962 26.25 8.125C26.25 8.9538 25.9208 9.74866 25.3347 10.3347C24.7487 10.9208 23.9538 11.25 23.125 11.25C22.2962 11.25 21.5013 10.9208 20.9153 10.3347C20.3292 9.74866 20 8.9538 20 8.125C20 7.2962 20.3292 6.50134 20.9153 5.91529C21.5013 5.32924 22.2962 5 23.125 5ZM6.875 5C7.7038 5 8.49866 5.32924 9.08471 5.91529C9.67076 6.50134 10 7.2962 10 8.125C10 8.9538 9.67076 9.74866 9.08471 10.3347C8.49866 10.9208 7.7038 11.25 6.875 11.25C6.0462 11.25 5.25134 10.9208 4.66529 10.3347C4.07924 9.74866 3.75 8.9538 3.75 8.125C3.75 7.2962 4.07924 6.50134 4.66529 5.91529C5.25134 5.32924 6.0462 5 6.875 5Z" fill="text-*"/>
</svg>
