<svg width="46" height="46" viewBox="0 0 46 46" fill="none" xmlns="http://www.w3.org/2000/svg">
<g clip-path="url(#clip0_376_162)">
<mask id="mask0_376_162" style="mask-type:luminance" maskUnits="userSpaceOnUse" x="0" y="0" width="46" height="46">
<path d="M46 0H0V46H46V0Z" fill="white"/>
</mask>
<g mask="url(#mask0_376_162)">
<path d="M16.0245 1.51304C11.4284 3.10747 7.46473 6.13376 4.71568 10.1474C1.96663 14.1611 0.577121 18.9505 0.751241 23.8122C0.925362 28.6739 2.65394 33.3516 5.68307 37.1583C8.7122 40.965 12.8822 43.7 17.5806 44.9615C21.3897 45.9444 25.3805 45.9876 29.21 45.0873C32.6791 44.3081 35.8864 42.6413 38.5178 40.2501C41.2565 37.6854 43.2444 34.4228 44.2678 30.8129C45.3801 26.8874 45.5781 22.7591 44.8464 18.7451H23.4564V27.6181H35.8441C35.5965 29.0333 35.0659 30.3839 34.2842 31.5893C33.5024 32.7946 32.4855 33.8299 31.2944 34.6331C29.7817 35.6337 28.0765 36.3069 26.2883 36.6096C24.4948 36.9431 22.6552 36.9431 20.8617 36.6096C19.044 36.2338 17.3244 35.4836 15.8125 34.4067C13.3837 32.6874 11.5599 30.2448 10.6016 27.4276C9.62699 24.5576 9.62699 21.4462 10.6016 18.5762C11.2837 16.5645 12.4115 14.7328 13.9006 13.2179C15.6047 11.4525 17.7622 10.1905 20.1363 9.5705C22.5105 8.9505 25.0095 8.99641 27.3592 9.70319C29.1948 10.2667 30.8734 11.2512 32.2611 12.5782C33.6579 11.1887 35.0522 9.79543 36.4442 8.39866C37.163 7.64757 37.9464 6.93241 38.6544 6.16335C36.5361 4.19209 34.0496 2.65821 31.3375 1.6496C26.3986 -0.143717 20.9946 -0.191911 16.0245 1.51304Z" fill="white"/>
<path d="M16.0245 1.51295C20.9942 -0.193153 26.3982 -0.146228 31.3375 1.64592C34.0501 2.66139 36.5354 4.20265 38.6508 6.18124C37.932 6.9503 37.1738 7.66905 36.4406 8.41655C35.0463 9.80853 33.6531 11.1957 32.2611 12.5781C30.8734 11.2511 29.1948 10.2666 27.3592 9.70311C25.0103 8.99385 22.5113 8.94529 20.1366 9.56275C17.7618 10.1802 15.603 11.4398 13.897 13.2034C12.4079 14.7183 11.2802 16.55 10.598 18.5617L3.14813 12.7937C5.81472 7.50575 10.4318 3.46085 16.0245 1.51295Z" fill="#E33629"/>
<path d="M1.17157 18.5078C1.57199 16.5233 2.23677 14.6015 3.14813 12.7938L10.598 18.5761C9.6234 21.4461 9.6234 24.5575 10.598 27.4275C8.11589 29.3442 5.63261 31.2704 3.14813 33.2063C0.866639 28.6649 0.170824 23.4906 1.17157 18.5078Z" fill="#F8BD00"/>
<path d="M23.4564 18.7415H44.8464C45.5781 22.7555 45.3801 26.8837 44.2678 30.8093C43.2444 34.4192 41.2565 37.6818 38.5178 40.2465C36.1136 38.3706 33.6986 36.509 31.2944 34.6331C32.4863 33.8291 33.5037 32.7927 34.2855 31.586C35.0673 30.3794 35.5974 29.0273 35.8441 27.6109H23.4564C23.4528 24.6568 23.4564 21.6992 23.4564 18.7415Z" fill="#587DBD"/>
<path d="M3.14453 33.2062C5.62901 31.2896 8.11229 29.3633 10.5944 27.4275C11.5547 30.2457 13.381 32.6884 15.8125 34.4066C17.3291 35.4784 19.0524 36.2226 20.8725 36.5916C22.666 36.925 24.5056 36.925 26.2991 36.5916C28.0873 36.2889 29.7925 35.6156 31.3052 34.615C33.7094 36.4909 36.1244 38.3525 38.5286 40.2284C35.8976 42.6209 32.6903 44.2889 29.2208 45.0692C25.3913 45.9695 21.4005 45.9263 17.5914 44.9434C14.5788 44.139 11.7648 42.721 9.32578 40.7783C6.74425 38.7287 4.63578 36.1458 3.14453 33.2062Z" fill="#319F43"/>
</g>
</g>
<defs>
<clipPath id="clip0_376_162">
<rect width="46" height="46" fill="white"/>
</clipPath>
</defs>
</svg>
