<svg width="49" height="44" viewBox="0 0 49 44" fill="none" xmlns="http://www.w3.org/2000/svg">
<g clip-path="url(#clip0_379_179)">
<path d="M24.5 0.214844C38.0345 0.214844 49 8.95469 49 19.7313C49 30.5078 38.0345 39.2477 24.5 39.2477C23.0113 39.2477 21.5566 39.1445 20.1444 38.9383C18.7323 39.9438 10.5656 45.7359 9.79149 45.8477C9.79149 45.8477 9.47674 45.968 9.20451 45.8133C8.93229 45.6586 8.98333 45.2375 8.98333 45.2375C9.0684 44.6703 11.1101 37.5719 11.4844 36.257C4.58524 32.8109 0 26.6922 0 19.7227C0 8.94609 10.9655 0.214844 24.5 0.214844ZM7.33299 13.8961C6.56736 13.8961 5.94635 14.5234 5.94635 15.2969C5.94635 16.0703 6.56736 16.6977 7.33299 16.6977H9.53629V25.1797C9.53629 25.9359 10.1743 26.5461 10.9484 26.5461C11.7226 26.5461 12.3606 25.9359 12.3606 25.1797V16.6977H14.5639C15.3295 16.6977 15.9505 16.0703 15.9505 15.2969C15.9505 14.5234 15.3295 13.8961 14.5639 13.8961H7.32448H7.33299ZM19.3108 13.8961C18.392 13.9133 17.6689 14.618 17.4307 15.3055L14.0535 24.2945C13.6281 25.6438 14.0024 26.1422 14.3852 26.3227C14.6575 26.4516 14.9722 26.5203 15.287 26.5203C15.874 26.5203 16.3248 26.2797 16.4609 25.893L17.1585 24.0367H21.4715L22.1691 25.8844C22.3052 26.2711 22.7561 26.5117 23.3431 26.5117C23.6578 26.5117 23.9641 26.443 24.2448 26.3141C24.6361 26.1336 25.0104 25.6352 24.5766 24.2859L21.1993 15.3055C20.9611 14.618 20.238 13.9133 19.3108 13.8961ZM34.6998 13.8961C33.9172 13.8961 33.2877 14.5406 33.2877 15.3227V25.0938C33.2877 25.8844 33.9257 26.5203 34.6998 26.5203C35.474 26.5203 36.112 25.8758 36.112 25.0938V21.9828L36.6054 21.4844L39.9146 25.9188C40.1868 26.2797 40.5951 26.4859 41.046 26.4859C41.3523 26.4859 41.65 26.3914 41.8967 26.2023C42.1944 25.9703 42.3901 25.6352 42.4411 25.257C42.4922 24.8789 42.3986 24.5008 42.1689 24.2L38.6896 19.5422L41.9137 16.2938C42.1349 16.0703 42.2455 15.7609 42.2285 15.4258C42.2115 15.0906 42.0583 14.7727 41.8116 14.5234C41.5479 14.257 41.1906 14.1023 40.8418 14.1023C40.5356 14.1023 40.2634 14.2141 40.0592 14.4203L36.1205 18.4078V15.3398C36.1205 14.5492 35.4825 13.9133 34.7083 13.9133L34.6998 13.8961ZM26.933 13.8961C26.1418 13.8961 25.4953 14.5406 25.4953 15.3227V25.0164C25.4953 25.7383 26.0993 26.3227 26.8479 26.3312H31.3821C32.1307 26.3312 32.7347 25.7383 32.7347 25.0164C32.7347 24.2945 32.1222 23.7102 31.3821 23.7102H28.3792V15.3227C28.3792 14.532 27.7326 13.8961 26.933 13.8961ZM20.7229 21.5102H17.8986L19.3108 17.4625L20.7229 21.5102Z" fill="black"/>
</g>
<defs>
<clipPath id="clip0_379_179">
<rect width="49" height="44" fill="white"/>
</clipPath>
</defs>
</svg>
