<svg width="79" height="23" viewBox="0 0 79 23" fill="none" xmlns="http://www.w3.org/2000/svg">
<path d="M0.0791016 0.759766C0.645508 0.857422 1.14355 0.925781 1.57324 0.964844C2.02246 1.00391 2.39355 1.0332 2.68652 1.05273C3.03809 1.07227 3.34082 1.08203 3.59473 1.08203C3.84863 1.08203 4.20996 1.0625 4.67871 1.02344C5.06934 0.984375 5.57715 0.935547 6.20215 0.876953C6.84668 0.818359 7.6377 0.720703 8.5752 0.583984C8.30176 0.662109 8.04785 0.886719 7.81348 1.25781C7.59863 1.60938 7.40332 1.99023 7.22754 2.40039C7.0127 2.88867 6.82715 3.42578 6.6709 4.01172C6.53418 4.53906 6.3584 5.26172 6.14355 6.17969C5.94824 7.09766 5.75293 8.09375 5.55762 9.16797C5.38184 10.2422 5.24512 11.3359 5.14746 12.4492C5.0498 13.543 5.03027 14.5488 5.08887 15.4668C5.16699 16.3848 5.35254 17.1465 5.64551 17.752C5.93848 18.3379 6.3877 18.6504 6.99316 18.6895C7.91113 18.7676 8.67285 18.7773 9.27832 18.7188C9.90332 18.6406 10.4111 18.5332 10.8018 18.3965C11.1924 18.2598 11.4951 18.1035 11.71 17.9277C11.9248 17.7324 12.0908 17.5469 12.208 17.3711C12.5205 16.9219 12.8428 16.3457 13.1748 15.6426C13.5068 14.9395 13.7998 14.2656 14.0537 13.6211C14.3271 12.9766 14.5518 12.4297 14.7275 11.9805C14.9033 11.5312 14.9912 11.3164 14.9912 11.3359C14.9912 11.375 14.9814 11.5996 14.9619 12.0098C14.9619 12.4004 14.9521 12.8789 14.9326 13.4453C14.9326 13.9922 14.9229 14.5684 14.9033 15.1738C14.9033 15.7793 14.8936 16.2969 14.874 16.7266C14.8545 17.0781 14.835 17.4688 14.8154 17.8984C14.7959 18.2695 14.7764 18.709 14.7568 19.2168C14.7568 19.7246 14.7373 20.2812 14.6982 20.8867C13.8779 20.8281 13.0967 20.7891 12.3545 20.7695C11.6123 20.75 10.958 20.7402 10.3916 20.7402C9.72754 20.7402 9.1123 20.75 8.5459 20.7695C7.94043 20.7891 7.2373 20.8184 6.43652 20.8574C5.75293 20.8965 4.90332 20.9453 3.8877 21.0039C2.87207 21.043 1.7002 21.1016 0.37207 21.1797C0.52832 20.9062 0.655273 20.6523 0.75293 20.418C0.870117 20.1836 0.958008 19.9883 1.0166 19.832C1.09473 19.6367 1.14355 19.4707 1.16309 19.334C1.28027 18.709 1.37793 17.918 1.45605 16.9609C1.53418 15.9844 1.59277 14.9492 1.63184 13.8555C1.69043 12.7617 1.71973 11.6484 1.71973 10.5156C1.73926 9.36328 1.73926 8.29883 1.71973 7.32227C1.7002 6.3457 1.66113 5.49609 1.60254 4.77344C1.56348 4.05078 1.50488 3.55273 1.42676 3.2793C1.3291 2.9668 1.21191 2.6543 1.0752 2.3418C0.958008 2.06836 0.811523 1.79492 0.635742 1.52148C0.479492 1.22852 0.293945 0.974609 0.0791016 0.759766ZM24.4834 8.875C24.9912 8.875 25.5186 8.97266 26.0654 9.16797C26.6123 9.34375 27.1396 9.57812 27.6475 9.87109C28.1553 10.1445 28.6143 10.4473 29.0244 10.7793C29.4541 11.0918 29.8057 11.3945 30.0791 11.6875C30.5674 12.2148 30.8994 12.9277 31.0752 13.8262C31.2705 14.7051 31.3096 15.6133 31.1924 16.5508C31.0752 17.4688 30.8018 18.3379 30.3721 19.1582C29.9424 19.9785 29.3467 20.584 28.585 20.9746C28.0381 21.248 27.501 21.4629 26.9736 21.6191C26.4463 21.7754 25.9385 21.8926 25.4502 21.9707C24.9619 22.0488 24.5029 22.0879 24.0732 22.0879C23.6436 22.0879 23.2725 22.0781 22.96 22.0586C22.374 22.0195 21.7588 21.8145 21.1143 21.4434C20.4893 21.0723 19.8936 20.6133 19.3271 20.0664C18.7803 19.5195 18.3115 18.9238 17.9209 18.2793C17.5303 17.6152 17.2959 16.9902 17.2178 16.4043C17.1006 15.6035 17.0811 14.7637 17.1592 13.8848C17.2373 13.0059 17.5205 12.1953 18.0088 11.4531C18.5166 10.7109 19.2783 10.0957 20.2939 9.60742C21.3291 9.11914 22.7256 8.875 24.4834 8.875ZM23.5166 20.2422C23.7314 20.2812 24.0244 20.2324 24.3955 20.0957C24.7666 19.9395 25.1279 19.6953 25.4795 19.3633C25.8506 19.0312 26.1729 18.6113 26.4463 18.1035C26.7393 17.5762 26.915 16.9414 26.9736 16.1992C27.0322 15.4766 27.0322 14.8125 26.9736 14.207C26.9346 13.6016 26.8467 13.0742 26.71 12.625C26.5732 12.1562 26.417 11.7754 26.2412 11.4824C26.0654 11.1895 25.8799 10.9844 25.6846 10.8672C25.3525 10.6914 24.9521 10.5547 24.4834 10.457C24.0146 10.3398 23.6143 10.3594 23.2822 10.5156C23.126 10.5938 22.9307 10.7598 22.6963 11.0137C22.4619 11.2676 22.2275 11.5898 21.9932 11.9805C21.7588 12.3516 21.5439 12.7812 21.3486 13.2695C21.1729 13.7578 21.0459 14.2656 20.9678 14.793C20.8896 15.3203 20.8701 15.8867 20.9092 16.4922C20.9678 17.0977 21.0947 17.6738 21.29 18.2207C21.4854 18.748 21.7588 19.207 22.1104 19.5977C22.4814 19.9688 22.9502 20.1836 23.5166 20.2422ZM32.7451 0.759766C33.3115 0.857422 33.8096 0.925781 34.2393 0.964844C34.6885 1.00391 35.0596 1.0332 35.3525 1.05273C35.7041 1.07227 36.0068 1.08203 36.2607 1.08203C36.5146 1.08203 36.876 1.0625 37.3447 1.02344C37.7354 0.984375 38.2432 0.935547 38.8682 0.876953C39.5127 0.818359 40.3037 0.720703 41.2412 0.583984C40.9678 0.662109 40.7139 0.886719 40.4795 1.25781C40.2646 1.60938 40.0693 1.99023 39.8936 2.40039C39.6787 2.88867 39.4932 3.42578 39.3369 4.01172C39.2002 4.53906 39.0244 5.26172 38.8096 6.17969C38.6143 7.09766 38.4189 8.09375 38.2236 9.16797C38.0479 10.2422 37.9111 11.3359 37.8135 12.4492C37.7158 13.543 37.6963 14.5488 37.7549 15.4668C37.833 16.3848 38.0186 17.1465 38.3115 17.752C38.6045 18.3379 39.0537 18.6504 39.6592 18.6895C40.5771 18.7676 41.3389 18.7773 41.9443 18.7188C42.5693 18.6406 43.0771 18.5332 43.4678 18.3965C43.8584 18.2598 44.1611 18.1035 44.376 17.9277C44.5908 17.7324 44.7568 17.5469 44.874 17.3711C45.1865 16.9219 45.5088 16.3457 45.8408 15.6426C46.1729 14.9395 46.4658 14.2656 46.7197 13.6211C46.9932 12.9766 47.2178 12.4297 47.3936 11.9805C47.5693 11.5312 47.6572 11.3164 47.6572 11.3359C47.6572 11.375 47.6475 11.5996 47.6279 12.0098C47.6279 12.4004 47.6182 12.8789 47.5986 13.4453C47.5986 13.9922 47.5889 14.5684 47.5693 15.1738C47.5693 15.7793 47.5596 16.2969 47.54 16.7266C47.5205 17.0781 47.501 17.4688 47.4814 17.8984C47.4619 18.2695 47.4424 18.709 47.4229 19.2168C47.4229 19.7246 47.4033 20.2812 47.3643 20.8867C46.5439 20.8281 45.7627 20.7891 45.0205 20.7695C44.2783 20.75 43.624 20.7402 43.0576 20.7402C42.3936 20.7402 41.7783 20.75 41.2119 20.7695C40.6064 20.7891 39.9033 20.8184 39.1025 20.8574C38.4189 20.8965 37.5693 20.9453 36.5537 21.0039C35.5381 21.043 34.3662 21.1016 33.0381 21.1797C33.1943 20.9062 33.3213 20.6523 33.4189 20.418C33.5361 20.1836 33.624 19.9883 33.6826 19.832C33.7607 19.6367 33.8096 19.4707 33.8291 19.334C33.9463 18.709 34.0439 17.918 34.1221 16.9609C34.2002 15.9844 34.2588 14.9492 34.2979 13.8555C34.3564 12.7617 34.3857 11.6484 34.3857 10.5156C34.4053 9.36328 34.4053 8.29883 34.3857 7.32227C34.3662 6.3457 34.3271 5.49609 34.2686 4.77344C34.2295 4.05078 34.1709 3.55273 34.0928 3.2793C33.9951 2.9668 33.8779 2.6543 33.7412 2.3418C33.624 2.06836 33.4775 1.79492 33.3018 1.52148C33.1455 1.22852 32.96 0.974609 32.7451 0.759766ZM56.8857 1.3457C57.5498 1.4043 58.2334 1.58008 58.9365 1.87305C59.6396 2.16602 60.2939 2.5957 60.8994 3.16211C61.5049 3.70898 62.0225 4.40234 62.4521 5.24219C62.9014 6.08203 63.1846 7.06836 63.3018 8.20117C63.4971 10.1543 63.3701 11.8438 62.9209 13.2695C62.4912 14.6953 61.8564 15.9453 61.0166 17.0195C60.1963 18.0938 59.2295 19.0508 58.1162 19.8906C57.0225 20.7109 55.8896 21.4922 54.7178 22.2344C54.1318 21.668 53.6729 21.209 53.3408 20.8574L52.8135 20.3301C52.6768 20.1543 52.501 19.959 52.2861 19.7441C52.1104 19.5488 51.8955 19.3145 51.6416 19.041C51.3877 18.7676 51.1045 18.4551 50.792 18.1035C51.3975 18.4355 51.9443 18.6504 52.4326 18.748C52.9404 18.8457 53.3701 18.8848 53.7217 18.8652C54.1318 18.8457 54.5029 18.7773 54.835 18.6602C55.7139 18.2305 56.5049 17.6934 57.208 17.0488C57.8135 16.4824 58.3604 15.7793 58.8486 14.9395C59.3564 14.0801 59.6299 13.0645 59.6689 11.8926C59.0439 12.791 58.3604 13.4355 57.6182 13.8262C56.8955 14.2168 56.2217 14.4805 55.5967 14.6172C54.8545 14.7734 54.1123 14.8027 53.3701 14.7051C52.999 14.6465 52.5986 14.4512 52.1689 14.1191C51.7393 13.7871 51.3291 13.3672 50.9385 12.8594C50.5479 12.332 50.1963 11.7461 49.8838 11.1016C49.5908 10.457 49.3857 9.7832 49.2686 9.08008C49.1514 8.35742 49.1416 7.63477 49.2393 6.91211C49.3564 6.16992 49.6396 5.45703 50.0889 4.77344C50.7529 3.77734 51.3779 3.02539 51.9639 2.51758C52.5498 2.00977 53.1162 1.66797 53.6631 1.49219C54.21 1.29688 54.7471 1.20898 55.2744 1.22852C55.8018 1.24805 56.3389 1.28711 56.8857 1.3457ZM53.7803 7.26367C53.624 7.81055 53.5459 8.35742 53.5459 8.9043C53.5459 9.45117 53.6143 9.94922 53.751 10.3984C53.9072 10.8477 54.1221 11.2383 54.3955 11.5703C54.6689 11.8828 55.0107 12.0781 55.4209 12.1562C55.8311 12.2539 56.2314 12.1953 56.6221 11.9805C57.0322 11.7461 57.4033 11.4238 57.7354 11.0137C58.0869 10.6035 58.3799 10.125 58.6143 9.57812C58.8682 9.01172 59.0342 8.43555 59.1123 7.84961C59.1709 7.43945 59.1709 7 59.1123 6.53125C59.0732 6.04297 58.9756 5.59375 58.8193 5.18359C58.6826 4.75391 58.4971 4.39258 58.2627 4.09961C58.0479 3.80664 57.7939 3.63086 57.501 3.57227C57.1104 3.51367 56.7197 3.57227 56.3291 3.74805C55.958 3.9043 55.6064 4.1582 55.2744 4.50977C54.9424 4.8418 54.6396 5.25195 54.3662 5.74023C54.1123 6.20898 53.917 6.7168 53.7803 7.26367ZM71.71 1.3457C72.374 1.4043 73.0576 1.58008 73.7607 1.87305C74.4639 2.16602 75.1182 2.5957 75.7236 3.16211C76.3291 3.70898 76.8467 4.40234 77.2764 5.24219C77.7256 6.08203 78.0088 7.06836 78.126 8.20117C78.3213 10.1543 78.1943 11.8438 77.7451 13.2695C77.3154 14.6953 76.6807 15.9453 75.8408 17.0195C75.0205 18.0938 74.0537 19.0508 72.9404 19.8906C71.8467 20.7109 70.7139 21.4922 69.542 22.2344C68.9561 21.668 68.4971 21.209 68.165 20.8574L67.6377 20.3301C67.501 20.1543 67.3252 19.959 67.1104 19.7441C66.9346 19.5488 66.7197 19.3145 66.4658 19.041C66.2119 18.7676 65.9287 18.4551 65.6162 18.1035C66.2217 18.4355 66.7686 18.6504 67.2568 18.748C67.7646 18.8457 68.1943 18.8848 68.5459 18.8652C68.9561 18.8457 69.3271 18.7773 69.6592 18.6602C70.5381 18.2305 71.3291 17.6934 72.0322 17.0488C72.6377 16.4824 73.1846 15.7793 73.6729 14.9395C74.1807 14.0801 74.4541 13.0645 74.4932 11.8926C73.8682 12.791 73.1846 13.4355 72.4424 13.8262C71.7197 14.2168 71.0459 14.4805 70.4209 14.6172C69.6787 14.7734 68.9365 14.8027 68.1943 14.7051C67.8232 14.6465 67.4229 14.4512 66.9932 14.1191C66.5635 13.7871 66.1533 13.3672 65.7627 12.8594C65.3721 12.332 65.0205 11.7461 64.708 11.1016C64.415 10.457 64.21 9.7832 64.0928 9.08008C63.9756 8.35742 63.9658 7.63477 64.0635 6.91211C64.1807 6.16992 64.4639 5.45703 64.9131 4.77344C65.5771 3.77734 66.2021 3.02539 66.7881 2.51758C67.374 2.00977 67.9404 1.66797 68.4873 1.49219C69.0342 1.29688 69.5713 1.20898 70.0986 1.22852C70.626 1.24805 71.1631 1.28711 71.71 1.3457ZM68.6045 7.26367C68.4482 7.81055 68.3701 8.35742 68.3701 8.9043C68.3701 9.45117 68.4385 9.94922 68.5752 10.3984C68.7314 10.8477 68.9463 11.2383 69.2197 11.5703C69.4932 11.8828 69.835 12.0781 70.2451 12.1562C70.6553 12.2539 71.0557 12.1953 71.4463 11.9805C71.8564 11.7461 72.2275 11.4238 72.5596 11.0137C72.9111 10.6035 73.2041 10.125 73.4385 9.57812C73.6924 9.01172 73.8584 8.43555 73.9365 7.84961C73.9951 7.43945 73.9951 7 73.9365 6.53125C73.8975 6.04297 73.7998 5.59375 73.6436 5.18359C73.5068 4.75391 73.3213 4.39258 73.0869 4.09961C72.8721 3.80664 72.6182 3.63086 72.3252 3.57227C71.9346 3.51367 71.5439 3.57227 71.1533 3.74805C70.7822 3.9043 70.4307 4.1582 70.0986 4.50977C69.7666 4.8418 69.4639 5.25195 69.1904 5.74023C68.9365 6.20898 68.7412 6.7168 68.6045 7.26367Z" fill="white"/>
</svg>
