<?xml version="1.0" encoding="UTF-8"?>
<svg id="_레이어_2" data-name="레이어 2" xmlns="http://www.w3.org/2000/svg" xmlns:xlink="http://www.w3.org/1999/xlink" viewBox="0 0 102.07 121.16">
  <defs>
   <style>
      .cls-1 { fill: url(#grad1); }
      .cls-2 { fill: url(#grad2); }
    </style>

    <radialGradient id="grad1" cx="65.05" cy="74.93" r="64.57" gradientUnits="userSpaceOnUse">
      <stop offset="0" stop-color="var(--start)" />
      <stop offset=".74" stop-color="var(--end)" />
    </radialGradient>

    <radialGradient id="grad2" cx="25.98" cy="41.91" r="65.84" gradientUnits="userSpaceOnUse">
      <stop offset="0" stop-color="var(--start)" />
      <stop offset="1" stop-color="var(--end)" />
    </radialGradient>

  </defs>
  <g id="_레이어_1-2" data-name="레이어 1">
    <g>
      <path fill="currentColor" class="cls-1" d="M96.65,59.49c-3.48-2.29-7.11-4.5-10.63-6.62-1.42-.86-2.84-1.72-4.25-2.58-1.1-.67-2.24-1.32-3.34-1.94-1.39-.78-2.71-1.52-3.92-2.31-3.52-2.28-6.96-4.89-10.29-7.41l-4.57-3.45-20.3,21.21,15.74,2.87,1.23-.93c5.48-4.15,9.87-3.65,16.19,1.83.7.61,1.07,1.72-.95,5.74-3.86,7.64-19.52,24.17-26.61,28.08-.6.33-1.86,1.01-2.56.94l-13.88-1.41,12.98,8.75,2.38.95c5.19,2.64,11.16,6.01,16.28,10.92l7.35,7.05-1.47-10.08c-.69-4.72,1.32-7.96,4.11-12.44.31-.49.62-.99.93-1.5,3.58-5.85,7.57-11.62,12.92-18.71.67-.89,1.33-1.8,2-2.73,2.94-4.08,5.98-8.3,10.11-10.07l5.97-2.56-5.42-3.58Z"/>
      <path fill="currentColor" class="cls-2" d="M42.41,85.98l20.3-21.21-15.74-2.87-1.23.93c-5.48,4.15-9.87,3.65-16.19-1.83-.7-.61-1.07-1.72.95-5.74,3.85-7.64,19.52-24.17,26.61-28.08.6-.33,1.86-1.02,2.56-.94l13.89,1.41-12.99-8.75-2.38-.95c-5.19-2.64-11.16-6-16.28-10.92l-7.35-7.05,1.47,10.08c.69,4.72-1.32,7.96-4.11,12.44-.31.49-.62.99-.93,1.5-3.58,5.84-7.56,11.62-12.92,18.71-.67.89-1.33,1.8-2,2.73-2.94,4.08-5.98,8.3-10.11,10.07l-5.97,2.56,5.42,3.58c3.48,2.3,7.12,4.5,10.64,6.63,1.42.86,2.83,1.71,4.24,2.58,1.1.67,2.24,1.31,3.34,1.93,1.39.78,2.71,1.52,3.92,2.31,3.52,2.28,6.96,4.89,10.29,7.41l4.57,3.45Z"/>
    </g>
  </g>
</svg>