<svg width="20" height="20" viewBox="0 0 20 20" fill="none" xmlns="http://www.w3.org/2000/svg">
<path d="M12.9833 10.6251C13.2093 10.1719 13.3289 9.6732 13.3333 9.16681V5.00015C13.3241 4.17698 13.0106 3.38633 12.4532 2.78051C11.8959 2.1747 11.134 1.79656 10.3145 1.71895C9.4949 1.64135 8.67561 1.86975 8.01442 2.36017C7.35322 2.85059 6.89689 3.56834 6.73333 4.37515M15.8333 9.16681C15.8333 8.9458 15.7455 8.73384 15.5892 8.57756C15.433 8.42128 15.221 8.33348 15 8.33348C14.779 8.33348 14.567 8.42128 14.4107 8.57756C14.2545 8.73384 14.1667 8.9458 14.1667 9.16681C14.1642 9.89486 13.9656 10.6088 13.5917 11.2335L14.8167 12.5001C15.4873 11.5186 15.842 10.3556 15.8333 9.16681ZM9.99999 12.5001H10.1333L6.66666 9.02515V9.16681C6.66666 10.0509 7.01785 10.8987 7.64297 11.5238C8.26809 12.149 9.11594 12.5001 9.99999 12.5001ZM17.2583 16.0751L3.92499 2.74181C3.84729 2.66411 3.75505 2.60248 3.65353 2.56043C3.55201 2.51838 3.44321 2.49674 3.33333 2.49674C3.22344 2.49674 3.11464 2.51838 3.01312 2.56043C2.9116 2.60248 2.81936 2.66411 2.74166 2.74181C2.58474 2.89873 2.49658 3.11156 2.49658 3.33348C2.49658 3.5554 2.58474 3.76823 2.74166 3.92515L16.075 17.2585C16.1525 17.3366 16.2446 17.3986 16.3462 17.4409C16.4477 17.4832 16.5566 17.505 16.6667 17.505C16.7767 17.505 16.8856 17.4832 16.9871 17.4409C17.0887 17.3986 17.1809 17.3366 17.2583 17.2585C17.3364 17.181 17.3984 17.0888 17.4407 16.9873C17.483 16.8857 17.5048 16.7768 17.5048 16.6668C17.5048 16.5568 17.483 16.4479 17.4407 16.3463C17.3984 16.2448 17.3364 16.1526 17.2583 16.0751Z" fill="#FCDC7B"/>
<path d="M12.5 16.6668H10.8334V14.9335C11.3049 14.8678 11.7667 14.7447 12.2084 14.5668L10.875 13.2335C10.5882 13.3003 10.2946 13.3339 10 13.3335C8.89495 13.3335 7.83514 12.8945 7.05374 12.1131C6.27234 11.3317 5.83335 10.2719 5.83335 9.16683C5.83335 8.94582 5.74556 8.73385 5.58928 8.57757C5.433 8.42129 5.22103 8.3335 5.00002 8.3335C4.77901 8.3335 4.56705 8.42129 4.41076 8.57757C4.25448 8.73385 4.16669 8.94582 4.16669 9.16683C4.16833 10.5684 4.67453 11.9225 5.59267 12.9814C6.51081 14.0403 7.77952 14.7333 9.16669 14.9335V16.6668H7.50002C7.27901 16.6668 7.06705 16.7546 6.91076 16.9109C6.75448 17.0672 6.66669 17.2791 6.66669 17.5002C6.66669 17.7212 6.75448 17.9331 6.91076 18.0894C7.06705 18.2457 7.27901 18.3335 7.50002 18.3335H12.5C12.721 18.3335 12.933 18.2457 13.0893 18.0894C13.2456 17.9331 13.3334 17.7212 13.3334 17.5002C13.3334 17.2791 13.2456 17.0672 13.0893 16.9109C12.933 16.7546 12.721 16.6668 12.5 16.6668Z" fill="#FCDC7B"/>
</svg>
