<svg width="21" height="21" viewBox="0 0 21 21" fill="none" xmlns="http://www.w3.org/2000/svg">
<path d="M10.5 2.84375C9.74579 2.84375 9.02247 3.14336 8.48917 3.67667C7.95586 4.20997 7.65625 4.93329 7.65625 5.6875V10.9375C7.65625 11.6917 7.95586 12.415 8.48917 12.9483C9.02247 13.4816 9.74579 13.7812 10.5 13.7812C11.2542 13.7812 11.9775 13.4816 12.5108 12.9483C13.0441 12.415 13.3437 11.6917 13.3437 10.9375V5.6875C13.3437 4.93329 13.0441 4.20997 12.5108 3.67667C11.9775 3.14336 11.2542 2.84375 10.5 2.84375Z" fill="#00BBA3"/>
<path d="M6.78125 10.9375C6.78125 10.7635 6.71211 10.5965 6.58904 10.4735C6.46597 10.3504 6.29905 10.2812 6.125 10.2812C5.95095 10.2812 5.78403 10.3504 5.66096 10.4735C5.53789 10.5965 5.46875 10.7635 5.46875 10.9375C5.46872 12.1582 5.91251 13.3373 6.71742 14.2551C7.52233 15.1728 8.63346 15.7667 9.84375 15.9259V16.8438H7.875C7.70095 16.8438 7.53403 16.9129 7.41096 17.036C7.28789 17.159 7.21875 17.326 7.21875 17.5C7.21875 17.674 7.28789 17.841 7.41096 17.964C7.53403 18.0871 7.70095 18.1562 7.875 18.1562H13.125C13.299 18.1562 13.466 18.0871 13.589 17.964C13.7121 17.841 13.7812 17.674 13.7812 17.5C13.7812 17.326 13.7121 17.159 13.589 17.036C13.466 16.9129 13.299 16.8438 13.125 16.8438H11.1562V15.9259C12.3665 15.7667 13.4777 15.1728 14.2826 14.2551C15.0875 13.3373 15.5313 12.1582 15.5312 10.9375C15.5312 10.7635 15.4621 10.5965 15.339 10.4735C15.216 10.3504 15.049 10.2812 14.875 10.2812C14.701 10.2812 14.534 10.3504 14.411 10.4735C14.2879 10.5965 14.2188 10.7635 14.2188 10.9375C14.2188 11.9238 13.827 12.8697 13.1296 13.5671C12.4322 14.2645 11.4863 14.6562 10.5 14.6562C9.51373 14.6562 8.56785 14.2645 7.87045 13.5671C7.17305 12.8697 6.78125 11.9238 6.78125 10.9375Z" fill="#00BBA3"/>
</svg>
