<svg width="94" height="94" viewBox="0 0 94 94" fill="none" xmlns="http://www.w3.org/2000/svg">
<path d="M17.625 43.1519V17.625H43.1519L60.7769 0H0V60.7769L17.625 43.1519Z" fill="#404040"/>
<path d="M76.375 50.8481V76.375H50.8481L33.2231 94H94V33.2231L76.375 50.8481Z" fill="#404040"/>
<path d="M94 0H73.2319V0.05875H73.1437V0.146875H73.085V0.205625H72.9969V0.29375H72.9381V0.3525H72.85V0.440625H72.7913V0.499375H72.7031V0.5875H72.6444V0.64625H72.5563V0.734375H72.4975V0.793125H72.4094V0.88125H72.3506V0.94H72.2625V1.02812H72.2038V1.08687H72.145V1.175H72.0569V1.23375H71.9981V1.32187H71.91V1.38063H71.8512V1.46875H71.7631V1.5275H71.7044V1.61563H71.6162V1.67437H71.5575V1.7625H71.4694V1.82125H71.4106V1.90937H71.3225V1.96813H71.2637V2.05625H71.1756V2.115H71.1169V2.20312H71.0287V2.26187H70.97V2.35H70.8819V2.40875H70.8231V2.49688H70.735V2.55562H70.6762V2.64375H70.5881V2.7025H70.5294V2.79062H70.4412V2.84938H70.3825V2.9375H70.2944V2.99625H70.2356V3.08437H70.1475V3.14313H70.0888V3.23125H70.0006V3.29H69.9419V3.37812H69.8538V3.43687H69.795V3.525H69.7069V3.58375H69.6481V3.67188H69.56V3.73062H69.5013V3.81875H69.4131V3.8775H69.3544V3.96563H69.2663V4.02437H69.2075V4.1125H69.1194V4.17125H69.0606V4.25938H68.9725V4.31813H68.9137V4.40625H68.8256V4.465H68.7669V4.55312H68.6787V4.61188H68.62V4.7H68.5319V4.75875H68.4731V4.84687H68.385V4.90562H68.3262V4.99375H68.2381V5.0525H68.1794V5.14062H68.0912V5.19938H68.0325V5.25812H67.9444V5.34625H67.8856V5.405H67.7975V5.49312H67.7387V5.55188H67.6506V5.64H67.5919V5.69875H67.5037V5.78688H67.445V5.84562H67.3569V5.93375H67.2981V5.9925H67.21V6.08062H67.1513V6.13937H67.0631V6.2275H67.0044V6.28625H66.9456V6.37438H66.8575V6.43313H66.7988V6.52125H66.7106V6.58H66.6519V6.66813H66.5638V6.72687H66.505V6.815H66.4169V6.87375H66.3581V6.96187H66.27V7.02063H66.2113V7.10875H66.1231V7.1675H66.0644V7.25563H65.9762V7.31437H65.9175V7.4025H65.8294V7.46125H65.7706V7.54937H65.6825V7.60812H65.6237V7.69625H65.5356V7.755H65.4769V7.84313H65.3887V7.90188H65.33V7.99H65.2419V8.04875H65.1831V8.13688H65.095V8.19563H65.0362V8.28375H64.9481V8.3425H64.8894V8.43062H64.8012V8.48938H64.7425V8.5775H64.6544V8.63625H64.5956V8.72437H64.5075V8.78312H64.4488V8.87125H64.3606V8.93H64.3019V9.01812H64.2138V9.07687H64.155V9.165H64.0669V9.22375H64.0081V9.31188H63.92V9.37063H63.8612V9.45875H63.7731V9.5175H63.7144V9.60563H63.6263V9.66438H63.5675V9.7525H63.4794V9.81125H63.4206V9.89937H63.3325V9.95813H63.2738V10.0463H63.1856V10.105H63.1269V10.1931H63.0387V10.2519H62.98V10.34H62.8919V10.3988H62.8331V10.4575H62.745V10.5456H62.6862V10.6044H62.5981V10.6925H62.5394V10.7513H62.4513V10.8394H62.3925V10.8981H62.3044V10.9862H62.2456V11.045H62.1575V11.1331H62.0987V11.1919H62.0106V11.28H61.9519V11.3387H61.8637V11.4269H61.805V11.4856H61.7463V11.5738H61.6581V11.6325H61.5994V11.7206H61.5113V11.7794H61.4525V11.8675H61.3644V11.9262H61.3056V12.0144H61.2175V12.0731H61.1587V12.1612H61.0706V12.22H61.0119V12.3081H60.9237V12.3669H60.865V12.455H60.7769V12.5138H60.7181V12.6019H60.63V12.6606H60.5713V12.7488H60.4831V12.8075H60.4244V12.8956H60.3363V12.9544H60.2775V13.0425H60.1894V13.1012H60.1306V13.1894H60.0425V13.2481H59.9837V13.3363H59.8956V13.395H59.8369V13.4831H59.7487V13.5419H59.69V13.63H59.6019V13.6887H59.5431V13.7769H59.455V13.8356H59.3962V13.9237H59.3081V13.9825H59.2494V14.0706H59.1612V14.1294H59.1025V14.2175H59.0144V14.2763H58.9556V14.3644H58.8675V14.4231H58.8088V14.5113H58.7206V14.57H58.6619V14.6581H58.5738V14.7169H58.515V14.805H58.4269V14.8637H58.3681V14.9519H58.28V15.0106H58.2212V15.0987H58.1331V15.1575H58.0744V15.2456H57.9862V15.3044H57.9275V15.3925H57.8394V15.4513H57.7806V15.51H57.6925V15.5981H57.6338V15.6569H57.5456V15.745H57.4869V15.8038H57.3988V15.8919H57.34V15.9506H57.2519V16.0387H57.1931V16.0975H57.105V16.1856H57.0462V16.2444H56.9581V16.3325H56.8994V16.3913H56.8112V16.4794H56.7525V16.5381H56.6644V16.6262H56.6056V16.685H56.5469V16.7731H56.4587V16.8319H56.4V16.92H56.3119V16.9788H56.2531V17.0669H56.165V17.1256H56.1063V17.2138H56.0181V17.2725H55.9594V17.3606H55.8713V17.4194H55.8125V17.5075H55.7244V17.5662H55.6656V17.6544H55.5775V17.7131H55.5187V17.8013H55.4306V17.86H55.3719V17.9481H55.2837V18.0069H55.225V18.095H55.1369V18.1537H55.0781V18.2419H54.99V18.3006H54.9313V18.3888H54.8431V18.4475H54.7844V18.5356H54.6963V18.5944H54.6375V18.6825H54.5494V18.7413H54.4906V18.8294H54.4025V18.8881H54.3438V18.9762H54.2556V19.035H54.1969V19.1231H54.1087V19.1819H54.05V19.27H53.9619V19.3288H53.9031V19.4169H53.815V19.4756H53.7562V19.5637H53.6681V19.6225H53.6094V19.7106H53.5212V19.7694H53.4625V19.8575H53.3744V19.9163H53.3156V20.0044H53.2275V20.0631H53.1688V20.1513H53.0806V20.21H53.0219V20.2981H52.9338V20.3569H52.875V20.445H52.7869V20.5037H52.7281V20.5919H52.64V20.6506H52.5812V20.7094H52.4931V20.7975H52.4344V20.8562H52.3462V20.9444H52.2875V21.0031H52.1994V21.0912H52.1406V21.15H52.0525V21.2381H51.9938V21.2969H51.9056V21.385H51.8469V21.4438H51.7588V21.5319H51.7V21.5906H51.6119V21.6788H51.5531V21.7375H51.4944V21.8256H51.4062V21.8844H51.3475V21.9725H51.2594V22.0312H51.2006V22.1194H51.1125V22.1781H51.0537V22.2663H50.9656V22.325H50.9069V22.4131H50.8187V22.4719H50.76V22.56H50.6719V22.6187H50.6131V22.7069H50.525V22.7656H50.4663V22.8538H50.3781V22.9125H50.3194V23.0006H50.2313V23.0594H50.1725V23.1475H50.0844V23.2063H50.0256V23.2944H49.9375V23.3531H49.8787V23.4412H49.7906V23.5H49.7319V23.5881H49.6437V23.6469H49.585V23.735H49.4969V23.7938H49.4381V23.8819H49.35V23.9406H49.2913V24.0288H49.2031V24.0875H49.1444V24.1756H49.0563V24.2344H48.9975V24.3225H48.9094V24.3813H48.8506V24.4694H48.7625V24.5281H48.7038V24.6163H48.6156V24.675H48.5569V24.7631H48.4688V24.8219H48.41V24.91H48.3219V24.9688H48.2631V25.0569H48.175V25.1156H48.1162V25.2038H48.0281V25.2625H47.9694V25.3506H47.8812V25.4094H47.8225V25.4975H47.7344V25.5562H47.6756V25.6444H47.5875V25.7031H47.5288V25.7912H47.4406V25.85H47.3819V25.9087H47.2938V25.9969H47.235V26.0556H47.1469V26.1437H47.0881V26.2025H47V26.2906H46.9412V26.3494H46.8531V26.4375H46.7944V26.4963H46.7062V26.5844H46.6475V26.6431H46.5594V26.7313H46.5006V26.79H46.4125V26.8781H46.3537V26.9369H46.295V27.025H46.2069V27.0838H46.1481V27.1719H46.06V27.2306H46.0013V27.3188H45.9131V27.3775H45.8544V27.4656H45.7663V27.5244H45.7075V27.6125H45.6194V27.6712H45.5606V27.7594H45.4725V27.8181H45.4137V27.9062H45.3256V27.965H45.2669V28.0531H45.1787V28.1119H45.12V28.2H45.0319V28.2587H44.9731V28.3469H44.885V28.4056H44.8263V28.4937H44.7381V28.5525H44.6794V28.6406H44.5913V28.6994H44.5325V28.7875H44.4444V28.8462H44.3856V28.9344H44.2975V28.9931H44.2388V29.0812H44.1506V29.14H44.0919V29.2281H44.0037V29.2869H43.945V29.375H43.8569V29.4338H43.7981V29.5219H43.71V29.5806H43.6512V29.6688H43.5631V29.7275H43.5044V29.8156H43.4162V29.8744H43.3575V29.9625H43.2694V30.0213H43.2106V30.1094H43.1225V30.1681H43.0638V30.2563H42.9756V30.315H42.9169V30.4031H42.8288V30.4619H42.77V30.55H42.6819V30.6087H42.6231V30.6969H42.535V30.7556H42.4762V30.8438H42.3881V30.9025H42.3294V30.9613H42.2412V31.0494H42.1825V31.1081H42.0944V31.1962H42.0356V31.255H41.9475V31.3431H41.8888V31.4019H41.8006V31.49H41.7419V31.5487H41.6538V31.6369H41.595V31.6956H41.5069V31.7837H41.4481V31.8425H41.36V31.9306H41.3013V31.9894H41.2131V32.0775H41.1544V32.1362H41.0956V32.2244H41.0075V32.2831H40.9487V32.3713H40.8606V32.43H40.8019V32.5181H40.7137V32.5769H40.655V32.665H40.5669V32.7238H40.5081V32.8119H40.42V32.8706H40.3612V32.9588H40.2731V33.0175H40.2144V33.1056H40.1263V33.1644H40.0675V33.2525H39.9794V33.3112H39.9206V33.3994H39.8325V33.4581H39.7738V33.5462H39.6856V33.605H39.6269V33.6931H39.5387V33.7519H39.48V33.84H39.3919V33.8988H39.3331V33.9869H39.245V34.0456H39.1862V34.1338H39.0981V34.1925H39.0394V34.2806H38.9513V34.3394H38.8925V34.4275H38.8044V34.4862H38.7456V34.5744H38.6575V34.6331H38.5988V34.7212H38.5106V34.78H38.4519V34.8681H38.3638V34.9269H38.305V35.015H38.2169V35.0737H38.1581V35.1619H38.07V35.2206H38.0112V35.3088H37.9231V35.3675H37.8644V35.4556H37.7762V35.5144H37.7175V35.6025H37.6294V35.6613H37.5706V35.7494H37.4825V35.8081H37.4237V35.8963H37.3356V35.955H37.2769V36.0431H37.1888V36.1019H37.13V36.1606H37.0419V36.2487H36.9831V36.3075H36.895V36.3956H36.8363V36.4544H36.7481V36.5425H36.6894V36.6012H36.6012V36.6894H36.5425V36.7481H36.4544V36.8363H36.3956V36.895H36.3075V36.9831H36.2487V37.0419H36.1606V37.13H36.1019V37.1888H36.0431V37.2769H35.955V37.3356H35.8963V37.4237H35.8081V37.4825H35.7494V37.5706H35.6613V37.6294H35.6025V37.7175H35.5144V37.7762H35.4556V37.8644H35.3675V37.9231H35.3088V38.0112H35.2206V38.07H35.1619V38.1581H35.0737V38.2169H35.015V38.305H34.9269V38.3638H34.8681V38.4519H34.78V38.5106H34.7212V38.5988H34.6331V38.6575H34.5744V38.7456H34.4862V38.8044H34.4275V38.8925H34.3394V38.9513H34.2806V39.0394H34.1925V39.0981H34.1338V39.1862H34.0456V39.245H33.9869V39.3331H33.8988V39.3919H33.84V39.48H33.7519V39.5387H33.6931V39.6269H33.605V39.6856H33.5462V39.7738H33.4581V39.8325H33.3994V39.9206H33.3112V39.9794H33.2525V40.0675H33.1644V40.1263H33.1056V40.2144H33.0175V40.2731H32.9588V40.3612H32.8706V40.42H32.8119V40.5081H32.7238V40.5669H32.665V40.655H32.5769V40.7137H32.5181V40.8019H32.43V40.8606H32.3713V40.9487H32.2831V41.0075H32.2244V41.0956H32.1362V41.1544H32.0775V41.2425H31.9894V41.3013H31.9306V41.36H31.8425V41.4481H31.7837V41.5069H31.6956V41.595H31.6369V41.6538H31.5487V41.7419H31.49V41.8006H31.4019V41.8888H31.3431V41.9475H31.255V42.0356H31.1962V42.0944H31.1081V42.1825H31.0494V42.2412H30.9613V42.3294H30.9025V42.3881H30.8438V42.4762H30.7556V42.535H30.6969V42.6231H30.6087V42.6819H30.55V42.77H30.4619V42.8288H30.4031V42.9169H30.315V42.9756H30.2563V43.0638H30.1681V43.1225H30.1094V43.2106H30.0213V43.2694H29.9625V43.3575H29.8744V43.4162H29.8156V43.5044H29.7275V43.5631H29.6688V43.6512H29.5806V43.71H29.5219V43.7981H29.4338V43.8569H29.375V43.945H29.2869V44.0037H29.2281V44.0919H29.14V44.1506H29.0812V44.2388H28.9931V44.2975H28.9344V44.3856H28.8462V44.4444H28.7875V44.5325H28.6994V44.5913H28.6406V44.6794H28.5525V44.7381H28.4937V44.8263H28.4056V44.885H28.3469V44.9731H28.2587V45.0319H28.2V45.12H28.1119V45.1787H28.0531V45.2669H27.965V45.3256H27.9062V45.4137H27.8181V45.4725H27.7594V45.5606H27.6712V45.6194H27.6125V45.7075H27.5244V45.7663H27.4656V45.8544H27.3775V45.9131H27.3188V46.0013H27.2306V46.06H27.1719V46.1481H27.0838V46.2069H27.025V46.295H26.9369V46.3537H26.8781V46.4125H26.79V46.5006H26.7313V46.5594H26.6431V46.6475H26.5844V46.7062H26.4963V46.7944H26.4375V46.8531H26.3494V46.9412H26.2906V47H26.2025V47.0881H26.1437V47.1469H26.0556V47.235H25.9969V47.2938H25.9087V47.3819H25.85V47.4406H25.7619V47.5288H25.7031V47.5875H25.6444V47.6756H25.5562V47.7344H25.4975V47.8225H25.4094V47.8812H25.3506V47.9694H25.2625V48.0281H25.2038V48.1162H25.1156V48.175H25.0569V48.2631H24.9688V48.3219H24.91V48.41H24.8219V48.4688H24.7631V48.5569H24.675V48.6156H24.6163V48.7038H24.5281V48.7625H24.4694V48.8506H24.3813V48.9094H24.3225V48.9975H24.2344V49.0563H24.1756V49.1444H24.0875V49.2031H24.0288V49.2913H23.9406V49.35H23.8819V49.4381H23.7938V49.4969H23.735V49.585H23.6469V49.6437H23.5881V49.7319H23.5V49.7906H23.4412V49.8787H23.3531V49.9375H23.2944V50.0256H23.2063V50.0844H23.1475V50.1725H23.0594V50.2313H23.0006V50.3194H22.9125V50.3781H22.8538V50.4663H22.7656V50.525H22.7069V50.6131H22.6187V50.6719H22.56V50.76H22.4719V50.8187H22.4131V50.9069H22.325V50.9656H22.2663V51.0537H22.1781V51.1125H22.1194V51.2006H22.0312V51.2594H21.9725V51.3475H21.8844V51.4062H21.8256V51.4944H21.7375V51.5531H21.6788V51.6119H21.5906V51.7H21.5319V51.7588H21.4438V51.8469H21.385V51.9056H21.2969V51.9938H21.2381V52.0525H21.15V52.1406H21.0912V52.1994H21.0031V52.2875H20.9444V52.3462H20.8562V52.4344H20.7975V52.4931H20.7094V52.5812H20.6506V52.64H20.5919V52.7281H20.5037V52.7869H20.445V52.875H20.3569V52.9338H20.2981V53.0219H20.21V53.0806H20.1513V53.1688H20.0631V53.2275H20.0044V53.3156H19.9163V53.3744H19.8575V53.4625H19.7694V53.5212H19.7106V53.6094H19.6225V53.6681H19.5637V53.7562H19.4756V53.815H19.4169V53.9031H19.3288V53.9619H19.27V54.05H19.1819V54.1087H19.1231V54.1969H19.035V54.2556H18.9762V54.3438H18.8881V54.4025H18.8294V54.4906H18.7413V54.5494H18.6825V54.6375H18.5944V54.6963H18.5356V54.7844H18.4475V54.8431H18.3888V54.9313H18.3006V54.99H18.2419V55.0781H18.1537V55.1369H18.095V55.225H18.0069V55.2837H17.9481V55.3719H17.86V55.4306H17.8013V55.5187H17.7131V55.5775H17.6544V55.6656H17.5662V55.7244H17.5075V55.8125H17.4194V55.8713H17.3606V55.9594H17.2725V56.0181H17.2138V56.1063H17.1256V56.165H17.0669V56.2531H16.9788V56.3119H16.92V56.4H16.8319V56.4587H16.7731V56.5469H16.685V56.6056H16.6262V56.6937H16.5381V56.7525H16.4794V56.8112H16.3913V56.8994H16.3325V56.9581H16.2444V57.0462H16.1856V57.105H16.0975V57.1931H16.0387V57.2519H15.9506V57.34H15.8919V57.3988H15.8038V57.4869H15.745V57.5456H15.6569V57.6338H15.5981V57.6925H15.51V57.7806H15.4513V57.8394H15.3925V57.9275H15.3044V57.9862H15.2456V58.0744H15.1575V58.1331H15.0987V58.2212H15.0106V58.28H14.9519V58.3681H14.8637V58.4269H14.805V58.515H14.7169V58.5738H14.6581V58.6619H14.57V58.7206H14.5113V58.8088H14.4231V58.8675H14.3644V58.9556H14.2763V59.0144H14.2175V59.1025H14.1294V59.1612H14.0706V59.2494H13.9825V59.3081H13.9237V59.3962H13.8356V59.455H13.7769V59.5431H13.6887V59.6019H13.63V59.69H13.5419V59.7487H13.4831V59.8369H13.395V59.8956H13.3363V59.9837H13.2481V60.0425H13.1894V60.1306H13.1012V60.1894H13.0425V60.2775H12.9544V60.3363H12.8956V60.4244H12.8075V60.4831H12.7488V60.5713H12.6606V60.63H12.6019V60.7181H12.5138V60.7769H12.455V60.865H12.3669V60.9237H12.3081V61.0119H12.22V61.0706H12.1612V61.1587H12.0731V61.2175H12.0144V61.3056H11.9262V61.3644H11.8675V61.4525H11.7794V61.5113H11.7206V61.5994H11.6325V61.6581H11.5738V61.7463H11.4856V61.805H11.4269V61.8637H11.3387V61.9519H11.28V62.0106H11.1919V62.0987H11.1331V62.1575H11.045V62.2456H10.9862V62.3044H10.8981V62.3925H10.8394V62.4513H10.7513V62.5394H10.6925V62.5981H10.6044V62.6862H10.5456V62.745H10.4575V62.8331H10.3988V62.8919H10.3106V62.98H10.2519V63.0387H10.1931V63.1269H10.105V63.1856H10.0463V63.2738H9.95813V63.3325H9.89937V63.4206H9.81125V63.4794H9.7525V63.5675H9.66438V63.6263H9.60563V63.7144H9.5175V63.7731H9.45875V63.8612H9.37063V63.92H9.31188V64.0081H9.22375V64.0669H9.165V64.155H9.07687V64.2138H9.01812V64.3019H8.93V64.3606H8.87125V64.4488H8.78312V64.5075H8.72437V64.5956H8.63625V64.6544H8.5775V64.7425H8.48938V64.8012H8.43062V64.8894H8.3425V64.9481H8.28375V65.0362H8.19563V65.095H8.13688V65.1831H8.04875V65.2419H7.99V65.33H7.90188V65.3887H7.84313V65.4769H7.755V65.5356H7.69625V65.6237H7.60812V65.6825H7.54937V65.7706H7.46125V65.8294H7.4025V65.9175H7.31437V65.9762H7.25563V66.0644H7.1675V66.1231H7.10875V66.2113H7.02063V66.27H6.96187V66.3581H6.87375V66.4169H6.815V66.505H6.72687V66.5638H6.66813V66.6519H6.58V66.7106H6.52125V66.7988H6.43313V66.8575H6.37438V66.9456H6.28625V67.0044H6.2275V67.0631H6.13937V67.1513H6.08062V67.21H5.9925V67.2981H5.93375V67.3569H5.84562V67.445H5.78688V67.5037H5.69875V67.5919H5.64V67.6506H5.55188V67.7387H5.49312V67.7975H5.405V67.8856H5.34625V67.9444H5.25812V68.0325H5.19938V68.0912H5.14062V68.1794H5.0525V68.2381H4.99375V68.3262H4.90562V68.385H4.84687V68.4731H4.75875V68.5319H4.7V68.62H4.61188V68.6787H4.55312V68.7669H4.465V68.8256H4.40625V68.9137H4.31813V68.9725H4.25938V69.0606H4.17125V69.1194H4.1125V69.2075H4.02437V69.2663H3.96563V69.3544H3.8775V69.4131H3.81875V69.5013H3.73062V69.56H3.67188V69.6481H3.58375V69.7069H3.525V69.795H3.43687V69.8538H3.37812V69.9419H3.29V70.0006H3.23125V70.0888H3.14313V70.1475H3.08437V70.2356H2.99625V70.2944H2.9375V70.3825H2.84938V70.4412H2.79062V70.5294H2.7025V70.5881H2.64375V70.6762H2.55562V70.735H2.49688V70.8231H2.40875V70.8819H2.35V70.97H2.26187V71.0287H2.20312V71.1169H2.115V71.1756H2.05625V71.2637H1.96813V71.3225H1.90937V71.4106H1.82125V71.4694H1.7625V71.5575H1.67437V71.6162H1.61563V71.7044H1.5275V71.7631H1.46875V71.8512H1.38063V71.91H1.32187V71.9981H1.23375V72.0569H1.175V72.1156H1.08687V72.2038H1.02812V72.2625H0.94V72.3506H0.88125V72.4094H0.793125V72.4975H0.734375V72.5563H0.64625V72.6444H0.5875V72.7031H0.499375V72.7913H0.440625V72.85H0.3525V72.9381H0.29375V72.9969H0.205625V73.085H0.146875V73.1437H0.05875V73.2319H0V94H20.7681V93.9412H20.8562V93.8531H20.915V93.7944H21.0031V93.7062H21.0619V93.6475H21.15V93.5594H21.2087V93.5006H21.2969V93.4125H21.3556V93.3538H21.4438V93.2656H21.5025V93.2069H21.5906V93.1188H21.6494V93.06H21.7375V92.9719H21.7962V92.9131H21.8844V92.825H21.9431V92.7663H22.0019V92.6781H22.09V92.6194H22.1488V92.5312H22.2369V92.4725H22.2956V92.3844H22.3837V92.3256H22.4425V92.2375H22.5306V92.1787H22.5894V92.0906H22.6775V92.0319H22.7362V91.9437H22.8244V91.885H22.8831V91.7969H22.9713V91.7381H23.03V91.65H23.1181V91.5912H23.1769V91.5031H23.265V91.4444H23.3237V91.3563H23.4119V91.2975H23.4706V91.2094H23.5588V91.1506H23.6175V91.0625H23.7056V91.0037H23.7644V90.9156H23.8525V90.8569H23.9113V90.7687H23.9994V90.71H24.0581V90.6219H24.1463V90.5631H24.205V90.475H24.2931V90.4163H24.3519V90.3281H24.44V90.2694H24.4988V90.1813H24.5869V90.1225H24.6456V90.0344H24.7337V89.9756H24.7925V89.8875H24.8806V89.8288H24.9394V89.7406H25.0275V89.6819H25.0863V89.5938H25.1744V89.535H25.2331V89.4469H25.3212V89.3881H25.38V89.3H25.4681V89.2412H25.5269V89.1531H25.615V89.0944H25.6737V89.0062H25.7619V88.9475H25.8206V88.8887H25.9087V88.8006H25.9675V88.7419H26.0556V88.6537H26.1144V88.595H26.2025V88.5069H26.2612V88.4481H26.3494V88.36H26.4081V88.3012H26.4963V88.2131H26.555V88.1544H26.6431V88.0662H26.7019V88.0075H26.79V87.9194H26.8488V87.8606H26.9369V87.7725H26.9956V87.7138H27.0544V87.6256H27.1425V87.5669H27.2013V87.4788H27.2894V87.42H27.3481V87.3319H27.4363V87.2731H27.495V87.185H27.5831V87.1263H27.6419V87.0381H27.73V86.9794H27.7887V86.8913H27.8769V86.8325H27.9356V86.7444H28.0238V86.6856H28.0825V86.5975H28.1706V86.5387H28.2294V86.4506H28.3175V86.3919H28.3762V86.3037H28.4644V86.245H28.5231V86.1569H28.6112V86.0981H28.67V86.01H28.7581V85.9512H28.8169V85.8631H28.905V85.8044H28.9637V85.7162H29.0519V85.6575H29.1106V85.5694H29.1987V85.5106H29.2575V85.4225H29.3456V85.3637H29.4044V85.2756H29.4925V85.2169H29.5513V85.1287H29.6394V85.07H29.6981V84.9819H29.7863V84.9231H29.845V84.835H29.9331V84.7763H29.9919V84.6881H30.08V84.6294H30.1388V84.5413H30.2269V84.4825H30.2856V84.3944H30.3738V84.3356H30.4325V84.2475H30.5206V84.1888H30.5794V84.1006H30.6675V84.0419H30.7262V83.9538H30.8144V83.895H30.8731V83.8069H30.9613V83.7481H31.02V83.6894H31.1081V83.6012H31.1669V83.5425H31.255V83.4544H31.3137V83.3956H31.4019V83.3075H31.4606V83.2487H31.5487V83.1606H31.6075V83.1019H31.6956V83.0137H31.7544V82.955H31.8425V82.8669H31.9012V82.8081H31.9894V82.72H32.0481V82.6612H32.1362V82.5731H32.195V82.5144H32.2537V82.4262H32.3419V82.3675H32.4006V82.2794H32.4888V82.2206H32.5475V82.1325H32.6356V82.0738H32.6944V81.9856H32.7825V81.9269H32.8413V81.8388H32.9294V81.78H32.9881V81.6919H33.0763V81.6331H33.135V81.545H33.2231V81.4863H33.2819V81.3981H33.37V81.3394H33.4287V81.2513H33.5169V81.1925H33.5756V81.1044H33.6637V81.0456H33.7225V80.9575H33.8106V80.8988H33.8694V80.8106H33.9575V80.7519H34.0163V80.6637H34.1044V80.605H34.1631V80.5169H34.2513V80.4581H34.31V80.37H34.3981V80.3112H34.4569V80.2231H34.545V80.1644H34.6037V80.0762H34.6919V80.0175H34.7506V79.9294H34.8387V79.8706H34.8975V79.7825H34.9856V79.7237H35.0444V79.6356H35.1325V79.5769H35.1912V79.4887H35.2794V79.43H35.3381V79.3419H35.4263V79.2831H35.485V79.195H35.5731V79.1363H35.6319V79.0481H35.72V78.9894H35.7788V78.9013H35.8669V78.8425H35.9256V78.7544H36.0138V78.6956H36.0725V78.6075H36.1606V78.5488H36.2194V78.49H36.3075V78.4019H36.3662V78.3431H36.4544V78.255H36.5131V78.1963H36.6012V78.1081H36.66V78.0494H36.7481V77.9613H36.8069V77.9025H36.895V77.8144H36.9538V77.7556H37.0419V77.6675H37.1006V77.6087H37.1888V77.5206H37.2475V77.4619H37.3356V77.3737H37.3944V77.315H37.4531V77.2269H37.5412V77.1681H37.6V77.08H37.6881V77.0212H37.7469V76.9331H37.835V76.8744H37.8937V76.7862H37.9819V76.7275H38.0406V76.6394H38.1287V76.5806H38.1875V76.4925H38.2756V76.4338H38.3344V76.3456H38.4225V76.2869H38.4813V76.1988H38.5694V76.14H38.6281V76.0519H38.7163V75.9931H38.775V75.905H38.8631V75.8463H38.9219V75.7581H39.01V75.6994H39.0688V75.6113H39.1569V75.5525H39.2156V75.4644H39.3037V75.4056H39.3625V75.3175H39.4506V75.2588H39.5094V75.1706H39.5975V75.1119H39.6562V75.0238H39.7444V74.965H39.8031V74.8769H39.8913V74.8181H39.95V74.73H40.0381V74.6712H40.0969V74.5831H40.185V74.5244H40.2437V74.4362H40.3319V74.3775H40.3906V74.2894H40.4787V74.2306H40.5375V74.1425H40.6256V74.0837H40.6844V73.9956H40.7725V73.9369H40.8312V73.8487H40.9194V73.79H40.9781V73.7019H41.0662V73.6431H41.125V73.555H41.2131V73.4963H41.2719V73.4081H41.36V73.3494H41.4188V73.2906H41.5069V73.2025H41.5656V73.1437H41.6538V73.0556H41.7125V72.9969H41.8006V72.9088H41.8594V72.85H41.9475V72.7619H42.0063V72.7031H42.0944V72.615H42.1531V72.5563H42.2412V72.4681H42.3V72.4094H42.3881V72.3213H42.4469V72.2625H42.5056V72.1744H42.5938V72.1156H42.6525V72.0275H42.7406V71.9688H42.7994V71.8806H42.8875V71.8219H42.9463V71.7337H43.0344V71.675H43.0931V71.5869H43.1812V71.5281H43.24V71.44H43.3281V71.3812H43.3869V71.2931H43.475V71.2344H43.5337V71.1462H43.6219V71.0875H43.6806V70.9994H43.7687V70.9406H43.8275V70.8525H43.9156V70.7938H43.9744V70.7056H44.0625V70.6469H44.1213V70.5588H44.2094V70.5H44.2681V70.4119H44.3563V70.3531H44.415V70.265H44.5031V70.2062H44.5619V70.1181H44.65V70.0594H44.7088V69.9713H44.7969V69.9125H44.8556V69.8244H44.9438V69.7656H45.0025V69.6775H45.0906V69.6188H45.1494V69.5306H45.2375V69.4719H45.2962V69.3838H45.3844V69.325H45.4431V69.2369H45.5312V69.1781H45.59V69.09H45.6781V69.0312H45.7369V68.9431H45.825V68.8844H45.8838V68.7962H45.9719V68.7375H46.0306V68.6494H46.1187V68.5906H46.1775V68.5025H46.2656V68.4437H46.3244V68.3556H46.4125V68.2969H46.4712V68.2381H46.5594V68.15H46.6181V68.0912H46.7062V68.0031H46.765V67.9444H46.8531V67.8563H46.9119V67.7975H47V67.7094H47.0588V67.6506H47.1469V67.5625H47.2056V67.5037H47.2938V67.4156H47.3525V67.3569H47.4406V67.2687H47.4994V67.21H47.5875V67.1219H47.6462V67.0631H47.705V66.975H47.7931V66.9163H47.8519V66.8281H47.94V66.7694H47.9987V66.6813H48.0869V66.6225H48.1456V66.5344H48.2337V66.4756H48.2925V66.3875H48.3806V66.3288H48.4394V66.2406H48.5275V66.1819H48.5863V66.0938H48.6744V66.035H48.7331V65.9469H48.8213V65.8881H48.88V65.8H48.9681V65.7412H49.0269V65.6531H49.115V65.5944H49.1737V65.5062H49.2619V65.4475H49.3206V65.3594H49.4087V65.3006H49.4675V65.2125H49.5556V65.1537H49.6144V65.0656H49.7025V65.0069H49.7613V64.9188H49.8494V64.86H49.9081V64.7719H49.9963V64.7131H50.055V64.625H50.1431V64.5662H50.2019V64.4781H50.29V64.4194H50.3487V64.3312H50.4369V64.2725H50.4956V64.1844H50.5837V64.1256H50.6425V64.0375H50.7306V63.9788H50.7894V63.8906H50.8775V63.8319H50.9362V63.7438H51.0244V63.685H51.0831V63.5969H51.1712V63.5381H51.23V63.45H51.3181V63.3913H51.3769V63.3031H51.465V63.2444H51.5238V63.1562H51.6119V63.0975H51.6706V63.0387H51.7588V62.9506H51.8175V62.8919H51.9056V62.8037H51.9644V62.745H52.0525V62.6569H52.1112V62.5981H52.1994V62.51H52.2581V62.4513H52.3462V62.3631H52.405V62.3044H52.4931V62.2163H52.5519V62.1575H52.64V62.0694H52.6988V62.0106H52.7575V61.9225H52.8456V61.8637H52.9044V61.7756H52.9925V61.7169H53.0512V61.6287H53.1394V61.57H53.1981V61.4819H53.2862V61.4231H53.345V61.335H53.4331V61.2763H53.4919V61.1881H53.58V61.1294H53.6388V61.0413H53.7269V60.9825H53.7856V60.8944H53.8737V60.8356H53.9325V60.7475H54.0206V60.6888H54.0794V60.6006H54.1675V60.5419H54.2262V60.4538H54.3144V60.395H54.3731V60.3069H54.4613V60.2481H54.52V60.16H54.6081V60.1012H54.6669V60.0131H54.755V59.9544H54.8138V59.8662H54.9019V59.8075H54.9606V59.7194H55.0487V59.6606H55.1075V59.5725H55.1956V59.5138H55.2544V59.4256H55.3425V59.3669H55.4013V59.2788H55.4894V59.22H55.5481V59.1319H55.6363V59.0731H55.695V58.985H55.7831V58.9262H55.8419V58.8381H55.93V58.7794H55.9887V58.6912H56.0769V58.6325H56.1356V58.5444H56.2237V58.4856H56.2825V58.3975H56.3706V58.3388H56.4294V58.2506H56.5175V58.1919H56.5763V58.1038H56.6644V58.045H56.7231V57.9569H56.8112V57.8981H56.87V57.8394H56.9581V57.7513H57.0169V57.6925H57.105V57.6044H57.1637V57.5456H57.2519V57.4575H57.3106V57.3988H57.3988V57.3106H57.4575V57.2519H57.5456V57.1637H57.6044V57.105H57.6925V57.0169H57.7513V56.9581H57.8394V56.87H57.8981V56.8112H57.9569V56.7231H58.045V56.6644H58.1038V56.5763H58.1919V56.5175H58.2506V56.4294H58.3388V56.3706H58.3975V56.2825H58.4856V56.2237H58.5444V56.1356H58.6325V56.0769H58.6912V55.9887H58.7794V55.93H58.8381V55.8419H58.9262V55.7831H58.985V55.695H59.0731V55.6363H59.1319V55.5481H59.22V55.4894H59.2788V55.4013H59.3669V55.3425H59.4256V55.2544H59.5138V55.1956H59.5725V55.1075H59.6606V55.0487H59.7194V54.9606H59.8075V54.9019H59.8662V54.8138H59.9544V54.755H60.0131V54.6669H60.1012V54.6081H60.16V54.52H60.2481V54.4613H60.3069V54.3731H60.395V54.3144H60.4538V54.2262H60.5419V54.1675H60.6006V54.0794H60.6888V54.0206H60.7475V53.9325H60.8356V53.8737H60.8944V53.7856H60.9825V53.7269H61.0413V53.6388H61.1294V53.58H61.1881V53.4919H61.2763V53.4331H61.335V53.345H61.4231V53.2862H61.4819V53.1981H61.57V53.1394H61.6287V53.0512H61.7169V52.9925H61.7756V52.9044H61.8637V52.8456H61.9225V52.7869H62.0106V52.6988H62.0694V52.64H62.1575V52.5519H62.2163V52.4931H62.3044V52.405H62.3631V52.3462H62.4513V52.2581H62.51V52.1994H62.5981V52.1112H62.6569V52.0525H62.745V51.9644H62.8037V51.9056H62.8919V51.8175H62.9506V51.7588H63.0387V51.6706H63.0975V51.6119H63.1562V51.5238H63.2444V51.465H63.3031V51.3769H63.3913V51.3181H63.45V51.23H63.5381V51.1712H63.5969V51.0831H63.685V51.0244H63.7438V50.9362H63.8319V50.8775H63.8906V50.7894H63.9788V50.7306H64.0375V50.6425H64.1256V50.5837H64.1844V50.4956H64.2725V50.4369H64.3312V50.3487H64.4194V50.29H64.4781V50.2019H64.5662V50.1431H64.625V50.055H64.7131V49.9963H64.7719V49.9081H64.86V49.8494H64.9188V49.7613H65.0069V49.7025H65.0656V49.6144H65.1537V49.5556H65.2125V49.4675H65.3006V49.4087H65.3594V49.3206H65.4475V49.2619H65.5062V49.1737H65.5944V49.115H65.6531V49.0269H65.7412V48.9681H65.8V48.88H65.8881V48.8213H65.9469V48.7331H66.035V48.6744H66.0938V48.5863H66.1819V48.5275H66.2406V48.4394H66.3288V48.3806H66.3875V48.2925H66.4756V48.2337H66.5344V48.1456H66.6225V48.0869H66.6813V47.9987H66.7694V47.94H66.8281V47.8519H66.9163V47.7931H66.975V47.705H67.0631V47.6462H67.1219V47.5875H67.21V47.4994H67.2687V47.4406H67.3569V47.3525H67.4156V47.2938H67.5037V47.2056H67.5625V47.1469H67.6506V47.0588H67.7094V47H67.7975V46.9119H67.8563V46.8531H67.9444V46.765H68.0031V46.7062H68.0912V46.6181H68.15V46.5594H68.2087V46.4712H68.2969V46.4125H68.3556V46.3244H68.4437V46.2656H68.5025V46.1775H68.5906V46.1187H68.6494V46.0306H68.7375V45.9719H68.7962V45.8838H68.8844V45.825H68.9431V45.7369H69.0312V45.6781H69.09V45.59H69.1781V45.5312H69.2369V45.4431H69.325V45.3844H69.3838V45.2962H69.4719V45.2375H69.5306V45.1494H69.6188V45.0906H69.6775V45.0025H69.7656V44.9438H69.8244V44.8556H69.9125V44.7969H69.9713V44.7088H70.0594V44.65H70.1181V44.5619H70.2062V44.5031H70.265V44.415H70.3531V44.3563H70.4119V44.2681H70.5V44.2094H70.5588V44.1213H70.6469V44.0625H70.7056V43.9744H70.7938V43.9156H70.8525V43.8275H70.9406V43.7687H70.9994V43.6806H71.0875V43.6219H71.1462V43.5337H71.2344V43.475H71.2931V43.3869H71.3812V43.3281H71.44V43.24H71.5281V43.1812H71.5869V43.0931H71.675V43.0344H71.7337V42.9463H71.8219V42.8875H71.8806V42.7994H71.9688V42.7406H72.0275V42.6525H72.1156V42.5938H72.1744V42.5056H72.2625V42.4469H72.3213V42.3881H72.4094V42.3H72.4681V42.2412H72.5563V42.1531H72.615V42.0944H72.7031V42.0063H72.7619V41.9475H72.85V41.8594H72.9088V41.8006H72.9969V41.7125H73.0556V41.6538H73.1437V41.5656H73.2025V41.5069H73.2906V41.4188H73.3494V41.36H73.4081V41.2719H73.4963V41.2131H73.555V41.125H73.6431V41.0662H73.7019V40.9781H73.79V40.9194H73.8487V40.8312H73.9369V40.7725H73.9956V40.6844H74.0837V40.6256H74.1425V40.5375H74.2306V40.4787H74.2894V40.3906H74.3775V40.3319H74.4362V40.2437H74.5244V40.185H74.5831V40.0969H74.6712V40.0381H74.73V39.95H74.8181V39.8913H74.8769V39.8031H74.965V39.7444H75.0238V39.6562H75.1119V39.5975H75.1706V39.5094H75.2588V39.4506H75.3175V39.3625H75.4056V39.3037H75.4644V39.2156H75.5525V39.1569H75.6113V39.0688H75.6994V39.01H75.7581V38.9219H75.8463V38.8631H75.905V38.775H75.9931V38.7163H76.0519V38.6281H76.14V38.5694H76.1988V38.4813H76.2869V38.4225H76.3456V38.3344H76.4338V38.2756H76.4925V38.1875H76.5806V38.1287H76.6394V38.0406H76.7275V37.9819H76.7862V37.8937H76.8744V37.835H76.9331V37.7469H77.0212V37.6881H77.08V37.6H77.1681V37.5412H77.2269V37.4531H77.315V37.3944H77.3737V37.3356H77.4619V37.2475H77.5206V37.1888H77.6087V37.1006H77.6675V37.0419H77.7556V36.9538H77.8144V36.895H77.9025V36.8069H77.9613V36.7481H78.0494V36.66H78.1081V36.6012H78.1963V36.5131H78.255V36.4544H78.3431V36.3662H78.4019V36.3075H78.49V36.2194H78.5488V36.1606H78.6075V36.0725H78.6956V36.0138H78.7544V35.9256H78.8425V35.8669H78.9013V35.7788H78.9894V35.72H79.0481V35.6319H79.1363V35.5731H79.195V35.485H79.2831V35.4263H79.3419V35.3381H79.43V35.2794H79.4887V35.1912H79.5769V35.1325H79.6356V35.0444H79.7237V34.9856H79.7825V34.8975H79.8706V34.8387H79.9294V34.7506H80.0175V34.6919H80.0762V34.6037H80.1644V34.545H80.2231V34.4569H80.3112V34.3981H80.37V34.31H80.4581V34.2513H80.5169V34.1631H80.605V34.1044H80.6637V34.0163H80.7519V33.9575H80.8106V33.8694H80.8988V33.8106H80.9575V33.7225H81.0456V33.6637H81.1044V33.5756H81.1925V33.5169H81.2513V33.4287H81.3394V33.37H81.3981V33.2819H81.4863V33.2231H81.545V33.135H81.6331V33.0763H81.6919V32.9881H81.78V32.9294H81.8388V32.8413H81.9269V32.7825H81.9856V32.6944H82.0738V32.6356H82.1325V32.5475H82.2206V32.4888H82.2794V32.4006H82.3675V32.3419H82.4262V32.2537H82.5144V32.195H82.5731V32.1362H82.6612V32.0481H82.72V31.9894H82.8081V31.9012H82.8669V31.8425H82.955V31.7544H83.0137V31.6956H83.1019V31.6075H83.1606V31.5487H83.2487V31.4606H83.3075V31.4019H83.3956V31.3137H83.4544V31.255H83.5425V31.1669H83.6012V31.1081H83.6894V31.02H83.7481V30.9613H83.8069V30.8731H83.895V30.8144H83.9538V30.7262H84.0419V30.6675H84.1006V30.5794H84.1888V30.5206H84.2475V30.4325H84.3356V30.3738H84.3944V30.2856H84.4825V30.2269H84.5413V30.1388H84.6294V30.08H84.6881V29.9919H84.7763V29.9331H84.835V29.845H84.9231V29.7863H84.9819V29.6981H85.07V29.6394H85.1287V29.5513H85.2169V29.4925H85.2756V29.4044H85.3637V29.3456H85.4225V29.2575H85.5106V29.1987H85.5694V29.1106H85.6575V29.0519H85.7162V28.9637H85.8044V28.905H85.8631V28.8169H85.9512V28.7581H86.01V28.67H86.0981V28.6112H86.1569V28.5231H86.245V28.4644H86.3037V28.3762H86.3919V28.3175H86.4506V28.2294H86.5387V28.1706H86.5975V28.0825H86.6856V28.0238H86.7444V27.9356H86.8325V27.8769H86.8913V27.7887H86.9794V27.73H87.0381V27.6419H87.1263V27.5831H87.185V27.495H87.2731V27.4363H87.3319V27.3481H87.42V27.2894H87.4788V27.2013H87.5669V27.1425H87.6256V27.0544H87.7138V26.9956H87.7725V26.9369H87.8606V26.8488H87.9194V26.79H88.0075V26.7019H88.0662V26.6431H88.1544V26.555H88.2131V26.4963H88.3012V26.4081H88.36V26.3494H88.4481V26.2612H88.5069V26.2025H88.595V26.1144H88.6537V26.0556H88.7419V25.9675H88.8006V25.9087H88.8594V25.8206H88.9475V25.7619H89.0062V25.6737H89.0944V25.615H89.1531V25.5269H89.2412V25.4681H89.3V25.38H89.3881V25.3212H89.4469V25.2331H89.535V25.1744H89.5938V25.0863H89.6819V25.0275H89.7406V24.9394H89.8288V24.8806H89.8875V24.7925H89.9756V24.7337H90.0344V24.6456H90.1225V24.5869H90.1813V24.4988H90.2694V24.44H90.3281V24.3519H90.4163V24.2931H90.475V24.205H90.5631V24.1463H90.6219V24.0581H90.71V23.9994H90.7687V23.9113H90.8569V23.8525H90.9156V23.7644H91.0037V23.7056H91.0625V23.6175H91.1506V23.5588H91.2094V23.4706H91.2975V23.4119H91.3563V23.3237H91.4444V23.265H91.5031V23.1769H91.5912V23.1181H91.65V23.03H91.7381V22.9713H91.7969V22.8831H91.885V22.8244H91.9437V22.7362H92.0319V22.6775H92.0906V22.5894H92.1787V22.5306H92.2375V22.4425H92.3256V22.3837H92.3844V22.2956H92.4725V22.2369H92.5312V22.1488H92.6194V22.09H92.6781V22.0019H92.7663V21.9431H92.825V21.8844H92.9131V21.7962H92.9719V21.7375H93.06V21.6494H93.1188V21.5906H93.2069V21.5025H93.2656V21.4438H93.3538V21.3556H93.4125V21.2969H93.5006V21.2087H93.5594V21.15H93.6475V21.0619H93.7062V21.0031H93.7944V20.915H93.8531V20.8562H93.9412V20.7681H94V0Z" fill="#00BBA3"/>
</svg>
