<svg width="23" height="23" viewBox="0 0 23 23" fill="none" xmlns="http://www.w3.org/2000/svg">
<path d="M8.5064 17.0128C6.12897 17.0128 4.1171 16.1892 2.47078 14.542C0.824467 12.8948 0.000873144 10.883 6.92422e-07 8.5064C-0.000871759 6.12984 0.822722 4.11797 2.47078 2.47078C4.11884 0.823594 6.13072 0 8.5064 0C10.8821 0 12.8944 0.823594 14.5433 2.47078C16.1923 4.11797 17.0154 6.12984 17.0128 8.5064C17.0128 9.4661 16.8601 10.3713 16.5548 11.2219C16.2494 12.0725 15.835 12.825 15.3115 13.4794L22.6401 20.808C22.88 21.0479 23 21.3532 23 21.724C23 22.0948 22.88 22.4002 22.6401 22.6401C22.4002 22.88 22.0948 23 21.724 23C21.3532 23 21.0479 22.88 20.808 22.6401L13.4794 15.3115C12.825 15.835 12.0725 16.2494 11.2219 16.5548C10.3713 16.8601 9.4661 17.0128 8.5064 17.0128ZM8.5064 14.3954C10.1422 14.3954 11.5329 13.8231 12.6785 12.6785C13.824 11.5338 14.3963 10.1431 14.3954 8.5064C14.3946 6.86968 13.8222 5.47943 12.6785 4.33565C11.5347 3.19186 10.144 2.6191 8.5064 2.61735C6.86881 2.61561 5.47856 3.18837 4.33565 4.33565C3.19274 5.48292 2.61997 6.87317 2.61735 8.5064C2.61474 10.1396 3.1875 11.5303 4.33565 12.6785C5.48379 13.8266 6.87405 14.3989 8.5064 14.3954Z" fill="white"/>
</svg>
