<svg width="112" height="94" viewBox="0 0 112 94" fill="none" xmlns="http://www.w3.org/2000/svg">
<path d="M51.8824 32.5702L55.5882 37.5175L59.7059 32.5702L69.5882 82.8684L55.5882 94L42.4118 82.8684L51.8824 32.5702Z" fill="#00BBA3"/>
<path d="M72.0588 53.5965L64.6471 29.6842L75.7647 18.5526L112 19.7895C110.353 21.576 106.153 25.314 102.529 27.6228C98.9059 29.9316 93.8824 32.5702 89.3529 32.9825H79.8824L89.3529 46.5877L72.0588 53.5965Z" fill="#00BBA3"/>
<path d="M55.5882 26.7982L38.7059 7.42105L42.4118 0H69.5882L72.8824 7.42105L55.5882 26.7982Z" fill="#00BBA3"/>
<path d="M46.1176 29.6842L36.2353 19.7895H0C1.37255 20.8889 2.47059 24.3246 10.7059 28.4474C17.0798 31.6383 22.3725 33.1199 23.4706 32.9825H31.7059L22.2353 46.5877L39.9412 53.5965L46.1176 29.6842Z" fill="#00BBA3"/>
</svg>
