<svg width="83" height="94" viewBox="0 0 83 94" fill="none" xmlns="http://www.w3.org/2000/svg">
<path d="M41.5424 0C43.5013 0 45.38 0.781859 46.7652 2.17358C48.1503 3.56529 48.9285 5.45287 48.9285 7.42105V34.1467L71.9633 20.7789C73.6588 19.8104 75.6668 19.5549 77.5491 20.0684C79.4314 20.5818 81.0352 21.8225 82.0104 23.5196C82.9856 25.2167 83.2532 27.2325 82.7546 29.127C82.2561 31.0216 81.032 32.6411 79.3494 33.6322L56.3146 47L79.3494 60.3628C81.032 61.3539 82.2561 62.9735 82.7546 64.868C83.2532 66.7626 82.9856 68.7784 82.0104 70.4755C81.0352 72.1726 79.4314 73.4132 77.5491 73.9267C75.6668 74.4401 73.6588 74.1847 71.9633 73.2161L48.9285 59.8582V86.579C48.9285 88.5471 48.1503 90.4347 46.7652 91.8264C45.38 93.2181 43.5013 94 41.5424 94C39.5835 94 37.7048 93.2181 36.3197 91.8264C34.9345 90.4347 34.1563 88.5471 34.1563 86.579V59.8533L11.1216 73.2211C10.2812 73.716 9.35178 74.0391 8.38668 74.1717C7.42158 74.3043 6.43992 74.2437 5.49819 73.9936C4.55647 73.7434 3.6733 73.3086 2.89952 72.7141C2.12574 72.1196 1.47665 71.3772 0.989596 70.5296C0.502546 69.6821 0.187166 68.7461 0.0616127 67.7756C-0.0639405 66.805 0.00281308 65.8192 0.25803 64.8747C0.513247 63.9302 0.951887 63.0457 1.5487 62.2722C2.1455 61.4987 2.88869 60.8515 3.73548 60.3678L26.7702 47L3.73548 33.6372C2.05288 32.6461 0.828742 31.0265 0.330209 29.132C-0.168323 27.2374 0.099221 25.2216 1.07446 23.5245C2.04969 21.8274 3.65344 20.5868 5.53573 20.0733C7.41802 19.5599 9.42603 19.8153 11.1216 20.7839L34.1563 34.1418V7.42105C34.1563 5.45287 34.9345 3.56529 36.3197 2.17358C37.7048 0.781859 39.5835 0 41.5424 0Z" fill="#currentColor"/>
</svg>
