<svg width="82" height="94" viewBox="0 0 82 94" fill="none" xmlns="http://www.w3.org/2000/svg">
<path d="M47.435 45.12C49.2 48.7296 50.1315 53.6427 50.3767 55.648L54.4215 45.872C54.1764 45.12 53.8332 42.112 54.4215 36.096C55.0099 30.08 62.2661 10.0267 65.8206 0.752C62.7563 5.01333 55.8924 14.664 52.9507 19.176C50.009 23.688 45.1061 33.088 43.0224 37.224C43.7578 38.352 45.67 41.5104 47.435 45.12Z" fill="#currentColor"/>
<path d="M59.5695 73.32C57.5103 75.1248 54.7892 78.3333 53.6861 79.712L53.3184 68.808C53.6861 67.304 54.6421 63.544 55.5247 60.536C56.4072 57.528 58.8341 51.136 63.6143 42.488C64.8401 40.608 68.3211 35.8704 70.9686 33.464C73.6161 31.0576 77.9552 28.2 82 25.944C76.4843 32.336 77.2197 31.584 72.0717 40.984C67.8813 48.6357 67.1689 60.6613 67.2915 67.68C65.5755 68.808 61.6287 71.5152 59.5695 73.32Z" fill="#currentColor"/>
<path d="M44.861 66.928C44.861 81.3664 42.4096 90.992 41.1839 94C31.7704 79.5616 19.6114 69.936 14.7085 66.928C14.3408 62.416 13.2377 51.9632 11.7668 46.248C10.296 40.5328 3.30942 30.3307 0 25.944C3.30942 27.448 11.3256 31.7344 16.9148 36.848C22.504 41.9616 26.3528 50.008 27.5785 53.392C27.5785 49.8827 27.3578 40.9088 26.4753 33.088C25.5928 25.2672 18.9985 7.77067 15.8117 0C18.6308 4.38667 24.2691 11.28 28.6816 19.176C31.718 24.6094 44.861 48.88 44.861 66.928Z" fill="#currentColor"/>
</svg>
